<?xml version="1.0" encoding="UTF-8"?>
<!DOCTYPE svg PUBLIC "-//W3C//DTD SVG 1.1//EN" "http://www.w3.org/Graphics/SVG/1.1/DTD/svg11.dtd">
<svg xmlns="http://www.w3.org/2000/svg" version="1.1" width="200px" height="200px" style="shape-rendering:geometricPrecision; text-rendering:geometricPrecision; image-rendering:optimizeQuality; fill-rule:evenodd; clip-rule:evenodd" xmlns:xlink="http://www.w3.org/1999/xlink">
<g><path style="opacity:1" fill="#e8be4a" d="M 93.5,46.5 C 91.1016,46.7406 89.1016,46.0739 87.5,44.5C 90.8175,45.2209 94.1508,45.3876 97.5,45C 97.9985,41.9739 97.3318,39.1406 95.5,36.5C 95.1583,35.6618 94.4916,35.3284 93.5,35.5C 92.3285,34.6554 90.9952,33.9887 89.5,33.5C 90.5981,32.603 90.5981,31.7697 89.5,31C 90.4162,30.6258 91.2496,30.1258 92,29.5C 94.7383,30.4817 97.5716,31.1484 100.5,31.5C 100.197,36.43 100.531,41.2633 101.5,46C 98.854,46.4974 96.1873,46.6641 93.5,46.5 Z"/></g>
<g><path style="opacity:1" fill="#ebc35b" d="M 105.5,31.5 C 103.555,36.6372 102.889,41.8039 103.5,47C 104.942,47.3768 105.942,48.2101 106.5,49.5C 105.443,50.206 105.776,50.5393 107.5,50.5C 107.5,50.8333 107.5,51.1667 107.5,51.5C 106.5,51.5 105.5,51.5 104.5,51.5C 104.5,50.5 104.5,49.5 104.5,48.5C 100.663,48.0691 96.9968,47.4025 93.5,46.5C 96.1873,46.6641 98.854,46.4974 101.5,46C 100.531,41.2633 100.197,36.43 100.5,31.5C 97.5716,31.1484 94.7383,30.4817 92,29.5C 91.2496,30.1258 90.4162,30.6258 89.5,31C 90.5981,31.7697 90.5981,32.603 89.5,33.5C 84.8744,32.2372 80.2077,31.0706 75.5,30C 74.1667,29.3333 74.1667,28.6667 75.5,28C 85.7368,27.1474 95.7368,28.3141 105.5,31.5 Z"/></g>
<g><path style="opacity:1" fill="#e9c64b" d="M 105.5,31.5 C 108.397,32.129 111.064,33.129 113.5,34.5C 111.409,36.5419 111.076,38.8752 112.5,41.5C 111.833,41.5 111.5,41.8333 111.5,42.5C 110.453,43.0778 110.62,43.7445 112,44.5C 112.497,47.146 112.664,49.8127 112.5,52.5C 111.833,52.1667 111.167,51.8333 110.5,51.5C 110.167,51.5 109.833,51.5 109.5,51.5C 109.158,50.6618 108.492,50.3284 107.5,50.5C 107.5,49.8333 107.167,49.5 106.5,49.5C 105.942,48.2101 104.942,47.3768 103.5,47C 102.889,41.8039 103.555,36.6372 105.5,31.5 Z"/></g>
<g><path style="opacity:1" fill="#f0d07c" d="M 67.5,35.5 C 71.2507,36.4808 74.9174,37.6475 78.5,39C 75.0037,39.6953 71.6703,39.1953 68.5,37.5C 67.7025,37.0431 67.3691,36.3764 67.5,35.5 Z"/></g>
<g><path style="opacity:1" fill="#ead24a" d="M 113.5,34.5 C 119.77,35.9651 125.104,38.9651 129.5,43.5C 128.307,43.9704 127.64,44.9704 127.5,46.5C 128.923,49.2746 129.589,52.2746 129.5,55.5C 129.167,55.5 128.833,55.5 128.5,55.5C 127.833,55.5 127.5,55.1667 127.5,54.5C 128.167,54.5 128.5,54.1667 128.5,53.5C 124.685,47.5805 119.351,43.5805 112.5,41.5C 111.076,38.8752 111.409,36.5419 113.5,34.5 Z"/></g>
<g><path style="opacity:1" fill="#f6e5b9" d="M 87.5,40.5 C 90.2469,40.1866 92.9135,40.52 95.5,41.5C 95.3764,42.1067 95.0431,42.44 94.5,42.5C 92.1667,41.8333 89.8333,41.1667 87.5,40.5 Z"/></g>
<g><path style="opacity:1" fill="#f2d89a" d="M 84.5,39.5 C 85.4916,39.3284 86.1583,39.6618 86.5,40.5C 85.2617,40.81 85.2617,41.31 86.5,42C 89.146,42.4974 91.8127,42.6641 94.5,42.5C 92.1667,43.1667 89.8333,43.8333 87.5,44.5C 84.9531,43.3787 83.9531,41.712 84.5,39.5 Z"/></g>
<g><path style="opacity:1" fill="#e7b744" d="M 93.5,35.5 C 93.8417,36.3382 94.5084,36.6716 95.5,36.5C 97.3318,39.1406 97.9985,41.9739 97.5,45C 94.1508,45.3876 90.8175,45.2209 87.5,44.5C 89.8333,43.8333 92.1667,43.1667 94.5,42.5C 95.0431,42.44 95.3764,42.1067 95.5,41.5C 92.9135,40.52 90.2469,40.1866 87.5,40.5C 87.1667,40.5 86.8333,40.5 86.5,40.5C 86.1583,39.6618 85.4916,39.3284 84.5,39.5C 79.9521,36.7081 74.9521,35.2081 69.5,35C 68.1667,34.3333 68.1667,33.6667 69.5,33C 77.5008,33.3669 85.5008,34.2003 93.5,35.5 Z"/></g>
<g><path style="opacity:1" fill="#f2e391" d="M 111.5,42.5 C 111.5,41.8333 111.833,41.5 112.5,41.5C 119.351,43.5805 124.685,47.5805 128.5,53.5C 128.167,53.5 127.833,53.5 127.5,53.5C 124.703,51.205 122.036,48.705 119.5,46C 116.929,44.5462 114.262,43.3795 111.5,42.5 Z"/></g>
<g><path style="opacity:1" fill="#b9b5cb" d="M 82.5,48.5 C 81.8423,47.6016 81.1757,46.6016 80.5,45.5C 79.5855,49.8149 78.7521,54.1483 78,58.5C 77.5014,54.8484 77.3347,51.1817 77.5,47.5C 78.404,46.791 78.7373,45.791 78.5,44.5C 79.8333,44.5 81.1667,44.5 82.5,44.5C 82.5,45.8333 82.5,47.1667 82.5,48.5 Z"/></g>
<g><path style="opacity:1" fill="#ead946" d="M 129.5,43.5 C 131.975,45.7703 133.975,48.437 135.5,51.5C 135.631,52.2389 135.464,52.9056 135,53.5C 134.346,52.3044 133.846,52.3044 133.5,53.5C 133.624,54.1067 133.957,54.44 134.5,54.5C 134.5,54.8333 134.5,55.1667 134.5,55.5C 134.5,56.1667 134.833,56.5 135.5,56.5C 135.5,57.5 135.5,58.5 135.5,59.5C 135.5,62.8333 135.5,66.1667 135.5,69.5C 135.5,71.1667 135.5,72.8333 135.5,74.5C 134.596,75.209 134.263,76.209 134.5,77.5C 133.662,77.8417 133.328,78.5084 133.5,79.5C 132.326,80.5137 131.66,81.847 131.5,83.5C 130.662,83.8417 130.328,84.5084 130.5,85.5C 129.094,85.9731 128.427,86.9731 128.5,88.5C 127.833,88.8333 127.167,89.1667 126.5,89.5C 124.87,87.642 124.537,85.642 125.5,83.5C 126.338,83.1583 126.672,82.4916 126.5,81.5C 127.338,81.1583 127.672,80.4916 127.5,79.5C 128.404,78.791 128.737,77.791 128.5,76.5C 129.404,75.791 129.737,74.791 129.5,73.5C 130.404,72.791 130.737,71.791 130.5,70.5C 131.338,70.1583 131.672,69.4916 131.5,68.5C 131.5,66.5 131.5,64.5 131.5,62.5C 131.737,61.209 131.404,60.209 130.5,59.5C 129.89,57.1497 129.556,57.483 129.5,60.5C 129.5,63.5 129.5,66.5 129.5,69.5C 129.5,69.8333 129.5,70.1667 129.5,70.5C 128.202,71.1157 127.202,71.1157 126.5,70.5C 126.5,70.1667 126.5,69.8333 126.5,69.5C 127.167,65.1667 127.833,60.8333 128.5,56.5C 129.167,56.5 129.5,56.1667 129.5,55.5C 129.589,52.2746 128.923,49.2746 127.5,46.5C 127.64,44.9704 128.307,43.9704 129.5,43.5 Z"/></g>
<g><path style="opacity:1" fill="#ecca5c" d="M 104.5,51.5 C 105.5,51.5 106.5,51.5 107.5,51.5C 108.167,51.5 108.833,51.5 109.5,51.5C 109.833,52.8333 110.167,52.8333 110.5,51.5C 111.167,51.8333 111.833,52.1667 112.5,52.5C 114.191,53.8637 115.858,55.197 117.5,56.5C 117.167,56.5 116.833,56.5 116.5,56.5C 114.079,54.7849 111.413,53.9516 108.5,54C 111.941,55.3184 113.275,57.8184 112.5,61.5C 106.578,59.5393 101.245,56.5393 96.5,52.5C 95.6143,51.675 95.281,50.675 95.5,49.5C 98.6916,49.4045 101.692,50.0712 104.5,51.5 Z"/></g>
<g><path style="opacity:1" fill="#7b6f9a" d="M 82.5,48.5 C 84.256,49.5521 84.9227,51.2188 84.5,53.5C 84.81,56.7131 84.4767,59.7131 83.5,62.5C 83.7744,57.737 83.441,53.0704 82.5,48.5 Z"/></g>
<g><path style="opacity:1" fill="#e9d042" d="M 111.5,42.5 C 114.262,43.3795 116.929,44.5462 119.5,46C 122.036,48.705 124.703,51.205 127.5,53.5C 127.5,53.8333 127.5,54.1667 127.5,54.5C 127.5,55.1667 127.833,55.5 128.5,55.5C 128.5,55.8333 128.5,56.1667 128.5,56.5C 127.833,60.8333 127.167,65.1667 126.5,69.5C 126.665,66.4816 126.498,63.4816 126,60.5C 125.66,64.5577 124.993,68.5577 124,72.5C 123.586,72.9574 123.086,73.2907 122.5,73.5C 121.548,71.9547 121.215,70.288 121.5,68.5C 121.5,66.8333 121.5,65.1667 121.5,63.5C 121.445,60.3855 120.112,58.0522 117.5,56.5C 115.858,55.197 114.191,53.8637 112.5,52.5C 112.664,49.8127 112.497,47.146 112,44.5C 110.62,43.7445 110.453,43.0778 111.5,42.5 Z"/></g>
<g><path style="opacity:1" fill="#ebcd50" d="M 116.5,56.5 C 117.504,57.6828 118.338,59.0161 119,60.5C 119.36,67.3764 119.193,74.043 118.5,80.5C 118.5,81.1667 118.5,81.8333 118.5,82.5C 116.413,83.5846 115.08,85.2512 114.5,87.5C 113.833,87.5 113.5,87.8333 113.5,88.5C 113.167,88.5 112.833,88.5 112.5,88.5C 111.96,85.1353 111.294,81.802 110.5,78.5C 113.415,73.0957 114.082,67.429 112.5,61.5C 113.275,57.8184 111.941,55.3184 108.5,54C 111.413,53.9516 114.079,54.7849 116.5,56.5 Z"/></g>
<g><path style="opacity:1" fill="#483370" d="M 82.5,48.5 C 83.441,53.0704 83.7744,57.737 83.5,62.5C 83.5,64.5 83.5,66.5 83.5,68.5C 83.5,69.1667 83.5,69.8333 83.5,70.5C 83.1667,70.5 82.8333,70.5 82.5,70.5C 81.6805,67.6946 81.1805,64.6946 81,61.5C 79.6439,62.3802 78.1439,62.7135 76.5,62.5C 76.6658,57.8215 76.4992,53.1548 76,48.5C 75.7679,49.7375 75.2679,50.7375 74.5,51.5C 74.3433,50.1266 74.51,48.7932 75,47.5C 75.9772,46.2264 76.8106,46.2264 77.5,47.5C 77.3347,51.1817 77.5014,54.8484 78,58.5C 78.7521,54.1483 79.5855,49.8149 80.5,45.5C 81.1757,46.6016 81.8423,47.6016 82.5,48.5 Z"/></g>
<g><path style="opacity:1" fill="#f3e999" d="M 130.5,59.5 C 131.404,60.209 131.737,61.209 131.5,62.5C 130.167,64.5 130.167,66.5 131.5,68.5C 131.672,69.4916 131.338,70.1583 130.5,70.5C 130.5,69.8333 130.167,69.5 129.5,69.5C 129.5,66.5 129.5,63.5 129.5,60.5C 130.167,60.5 130.5,60.1667 130.5,59.5 Z"/></g>
<g><path style="opacity:1" fill="#553170" d="M 82.5,70.5 C 82.5,71.5 82.5,72.5 82.5,73.5C 82.5,73.8333 82.5,74.1667 82.5,74.5C 81.5655,75.5676 81.2322,76.901 81.5,78.5C 81.5,78.8333 81.5,79.1667 81.5,79.5C 81.1667,79.5 80.8333,79.5 80.5,79.5C 80.313,77.4357 79.813,75.4357 79,73.5C 77.6667,72.1667 76.3333,72.1667 75,73.5C 74.51,72.2068 74.3433,70.8734 74.5,69.5C 74.75,66.786 74.9167,64.1194 75,61.5C 73.1824,66.7308 71.6824,72.0641 70.5,77.5C 69.291,79.9408 67.6243,81.9408 65.5,83.5C 69.3159,73.0537 72.3159,62.387 74.5,51.5C 75.2679,50.7375 75.7679,49.7375 76,48.5C 76.4992,53.1548 76.6658,57.8215 76.5,62.5C 78.1439,62.7135 79.6439,62.3802 81,61.5C 81.1805,64.6946 81.6805,67.6946 82.5,70.5 Z"/></g>
<g><path style="opacity:1" fill="#efe36e" d="M 135.5,51.5 C 139.239,57.2201 140.406,63.5534 139,70.5C 136.391,81.0606 131.225,90.0606 123.5,97.5C 123.167,97.3333 122.833,97.1667 122.5,97C 124.888,94.3713 126.888,91.538 128.5,88.5C 129.906,88.0269 130.573,87.0269 130.5,85.5C 131.338,85.1583 131.672,84.4916 131.5,83.5C 133.104,82.713 133.771,81.3797 133.5,79.5C 134.338,79.1583 134.672,78.4916 134.5,77.5C 135.404,76.791 135.737,75.791 135.5,74.5C 136.833,72.8333 136.833,71.1667 135.5,69.5C 135.5,66.1667 135.5,62.8333 135.5,59.5C 136.833,58.5 136.833,57.5 135.5,56.5C 134.833,56.5 134.5,56.1667 134.5,55.5C 135.833,55.1667 135.833,54.8333 134.5,54.5C 133.957,54.44 133.624,54.1067 133.5,53.5C 133.846,52.3044 134.346,52.3044 135,53.5C 135.464,52.9056 135.631,52.2389 135.5,51.5 Z"/></g>
<g><path style="opacity:1" fill="#f2e086" d="M 116.5,56.5 C 116.833,56.5 117.167,56.5 117.5,56.5C 120.112,58.0522 121.445,60.3855 121.5,63.5C 120.167,65.1667 120.167,66.8333 121.5,68.5C 121.215,70.288 121.548,71.9547 122.5,73.5C 123.086,73.2907 123.586,72.9574 124,72.5C 124.993,68.5577 125.66,64.5577 126,60.5C 126.498,63.4816 126.665,66.4816 126.5,69.5C 126.5,69.8333 126.5,70.1667 126.5,70.5C 125.433,72.964 124.1,75.2974 122.5,77.5C 121.833,77.5 121.5,77.8333 121.5,78.5C 120.5,79.1667 119.5,79.8333 118.5,80.5C 119.193,74.043 119.36,67.3764 119,60.5C 118.338,59.0161 117.504,57.6828 116.5,56.5 Z"/></g>
<g><path style="opacity:1" fill="#58296b" d="M 74.5,69.5 C 74.3433,70.8734 74.51,72.2068 75,73.5C 76.3333,72.1667 77.6667,72.1667 79,73.5C 79.813,75.4357 80.313,77.4357 80.5,79.5C 80.5,80.1667 80.5,80.8333 80.5,81.5C 80.5,81.8333 80.5,82.1667 80.5,82.5C 79.3882,84.5994 78.7215,86.9327 78.5,89.5C 77.7777,90.5511 76.7777,91.2178 75.5,91.5C 75.6287,89.7839 75.962,88.1172 76.5,86.5C 77.0431,86.44 77.3764,86.1067 77.5,85.5C 75.8149,83.9825 74.3149,82.3159 73,80.5C 71.6074,84.2857 69.9407,87.9523 68,91.5C 67.8333,91 67.6667,90.5 67.5,90C 70.5685,83.2918 72.9019,76.4585 74.5,69.5 Z"/></g>
<g><path style="opacity:1" fill="#bba9c4" d="M 84.5,53.5 C 85.5,53.5 86.5,53.5 87.5,53.5C 87.3715,67.9786 85.0381,81.9786 80.5,95.5C 80.6602,93.8008 80.4935,92.1341 80,90.5C 78.8932,91.7119 78.3932,91.3786 78.5,89.5C 78.7215,86.9327 79.3882,84.5994 80.5,82.5C 81.6441,83.1826 81.6441,82.8493 80.5,81.5C 80.5,80.8333 80.5,80.1667 80.5,79.5C 80.8333,79.5 81.1667,79.5 81.5,79.5C 82.6441,80.1826 82.6441,79.8493 81.5,78.5C 81.2322,76.901 81.5655,75.5676 82.5,74.5C 83.4228,77.8056 83.4228,77.4723 82.5,73.5C 82.5,72.5 82.5,71.5 82.5,70.5C 82.8333,70.5 83.1667,70.5 83.5,70.5C 84.633,72.0214 84.633,71.3547 83.5,68.5C 83.5,66.5 83.5,64.5 83.5,62.5C 84.4767,59.7131 84.81,56.7131 84.5,53.5 Z"/></g>
<g><path style="opacity:1" fill="#edd75d" d="M 126.5,70.5 C 127.202,71.1157 128.202,71.1157 129.5,70.5C 129.5,71.5 129.5,72.5 129.5,73.5C 128.596,74.209 128.263,75.209 128.5,76.5C 127.596,77.209 127.263,78.209 127.5,79.5C 126.662,79.8417 126.328,80.5084 126.5,81.5C 125.662,81.8417 125.328,82.5084 125.5,83.5C 124.537,85.642 124.87,87.642 126.5,89.5C 125.396,91.3885 124.063,93.0552 122.5,94.5C 122.539,93.2438 122.039,92.2438 121,91.5C 119.578,93.6381 117.745,94.8047 115.5,95C 120.231,92.0443 122.064,87.8776 121,82.5C 120.292,83.3805 119.458,84.0472 118.5,84.5C 118.5,83.8333 118.5,83.1667 118.5,82.5C 120.262,81.7377 121.262,80.4044 121.5,78.5C 122.167,78.5 122.5,78.1667 122.5,77.5C 124.1,75.2974 125.433,72.964 126.5,70.5 Z"/></g>
<g><path style="opacity:1" fill="#713071" d="M 74.5,69.5 C 72.9019,76.4585 70.5685,83.2918 67.5,90C 67.6667,90.5 67.8333,91 68,91.5C 69.9407,87.9523 71.6074,84.2857 73,80.5C 74.3149,82.3159 75.8149,83.9825 77.5,85.5C 77.3764,86.1067 77.0431,86.44 76.5,86.5C 74.707,88.2602 73.3737,90.9269 72.5,94.5C 72.5,95.1667 72.8333,95.5 73.5,95.5C 73.6716,96.4916 73.3382,97.1583 72.5,97.5C 71.3559,96.8174 71.3559,97.1507 72.5,98.5C 72.7373,99.791 72.404,100.791 71.5,101.5C 71.6716,100.508 71.3382,99.8417 70.5,99.5C 69.603,98.4019 68.7697,98.4019 68,99.5C 67.8337,103.511 67.0004,104.011 65.5,101C 62.1238,100.693 60.7904,98.8595 61.5,95.5C 62.2613,91.2157 63.5947,87.2157 65.5,83.5C 67.6243,81.9408 69.291,79.9408 70.5,77.5C 71.6824,72.0641 73.1824,66.7308 75,61.5C 74.9167,64.1194 74.75,66.786 74.5,69.5 Z"/></g>
<g><path style="opacity:1" fill="#e9c24c" d="M 110.5,78.5 C 111.294,81.802 111.96,85.1353 112.5,88.5C 111.833,89.5 111.167,90.5 110.5,91.5C 109.833,91.5 109.5,91.8333 109.5,92.5C 108.833,92.5 108.5,92.8333 108.5,93.5C 107.833,93.5 107.5,93.8333 107.5,94.5C 106.833,94.5 106.5,94.8333 106.5,95.5C 105.833,95.5 105.5,95.8333 105.5,96.5C 104.508,96.3284 103.842,96.6618 103.5,97.5C 102.833,97.5 102.5,97.8333 102.5,98.5C 101.833,98.5 101.5,98.8333 101.5,99.5C 100.833,99.5 100.167,99.5 99.5,99.5C 98.0695,99.4208 96.7362,99.7542 95.5,100.5C 94.5481,98.9547 94.2148,97.288 94.5,95.5C 99.8612,89.8071 105.195,84.1404 110.5,78.5 Z"/></g>
<g><path style="opacity:1" fill="#bca1bf" d="M 76.5,86.5 C 75.962,88.1172 75.6287,89.7839 75.5,91.5C 74.8333,92.5 74.1667,93.5 73.5,94.5C 73.1667,94.5 72.8333,94.5 72.5,94.5C 73.3737,90.9269 74.707,88.2602 76.5,86.5 Z"/></g>
<g><path style="opacity:1" fill="#eace4f" d="M 122.5,94.5 C 119.737,97.6509 116.737,100.651 113.5,103.5C 111.998,100.547 110.998,97.3804 110.5,94C 111.381,93.2917 112.047,92.4584 112.5,91.5C 113.11,90.609 113.443,89.609 113.5,88.5C 114.167,88.5 114.5,88.1667 114.5,87.5C 115.833,86.5 117.167,85.5 118.5,84.5C 119.458,84.0472 120.292,83.3805 121,82.5C 122.064,87.8776 120.231,92.0443 115.5,95C 117.745,94.8047 119.578,93.6381 121,91.5C 122.039,92.2438 122.539,93.2438 122.5,94.5 Z"/></g>
<g><path style="opacity:1" fill="#eac352" d="M 110.5,91.5 C 111.167,91.5 111.833,91.5 112.5,91.5C 112.047,92.4584 111.381,93.2917 110.5,94C 110.998,97.3804 111.998,100.547 113.5,103.5C 110.09,107.238 106.09,110.238 101.5,112.5C 101.218,111.222 100.551,110.222 99.5,109.5C 98.8333,108.167 98.1667,108.167 97.5,109.5C 96.5084,109.328 95.8417,109.662 95.5,110.5C 94.8333,110.5 94.5,110.833 94.5,111.5C 93.5084,111.328 92.8417,111.662 92.5,112.5C 91.5084,112.328 90.8417,112.662 90.5,113.5C 89.5084,113.328 88.8417,113.662 88.5,114.5C 87.5084,114.328 86.8417,114.662 86.5,115.5C 86.1667,115.5 85.8333,115.5 85.5,115.5C 85.5,114.5 85.5,113.5 85.5,112.5C 86.8333,112.5 88.1667,112.5 89.5,112.5C 89.2965,110.61 89.9632,109.11 91.5,108C 89.8374,107.735 88.3374,108.235 87,109.5C 87.7918,107.522 89.2918,105.855 91.5,104.5C 91.1373,103.817 90.8039,103.15 90.5,102.5C 90.6107,101.883 90.944,101.383 91.5,101C 90.5842,100.722 89.9175,100.222 89.5,99.5C 90.5846,97.4131 92.2512,96.0798 94.5,95.5C 94.2148,97.288 94.5481,98.9547 95.5,100.5C 96.7362,99.7542 98.0695,99.4208 99.5,99.5C 100.167,100.833 100.833,100.833 101.5,99.5C 102.167,99.5 102.5,99.1667 102.5,98.5C 103.167,98.5 103.5,98.1667 103.5,97.5C 104.492,97.6716 105.158,97.3382 105.5,96.5C 106.167,96.5 106.5,96.1667 106.5,95.5C 107.167,95.5 107.5,95.1667 107.5,94.5C 108.167,94.5 108.5,94.1667 108.5,93.5C 109.167,93.5 109.5,93.1667 109.5,92.5C 110.167,92.5 110.5,92.1667 110.5,91.5 Z"/></g>
<g><path style="opacity:1" fill="#762f71" d="M 78.5,89.5 C 78.3932,91.3786 78.8932,91.7119 80,90.5C 80.4935,92.1341 80.6602,93.8008 80.5,95.5C 80.6893,99.037 80.0226,102.37 78.5,105.5C 78.5,106.167 78.1667,106.5 77.5,106.5C 74.8476,108.295 72.1809,108.961 69.5,108.5C 69.5,107.5 69.5,106.5 69.5,105.5C 70.404,104.791 70.7373,103.791 70.5,102.5C 71.1667,102.5 71.5,102.167 71.5,101.5C 72.404,100.791 72.7373,99.791 72.5,98.5C 72.5,98.1667 72.5,97.8333 72.5,97.5C 73.3382,97.1583 73.6716,96.4916 73.5,95.5C 73.5,95.1667 73.5,94.8333 73.5,94.5C 74.1667,93.5 74.8333,92.5 75.5,91.5C 76.7777,91.2178 77.7777,90.5511 78.5,89.5 Z"/></g>
<g><path style="opacity:1" fill="#f0cf88" d="M 89.5,99.5 C 89.9175,100.222 90.5842,100.722 91.5,101C 90.944,101.383 90.6107,101.883 90.5,102.5C 88.6675,103.248 87.0009,104.248 85.5,105.5C 85.1667,104.167 84.8333,104.167 84.5,105.5C 84.5,106.167 84.1667,106.5 83.5,106.5C 83.1667,105.167 82.8333,105.167 82.5,106.5C 82.5,107.833 81.8333,108.5 80.5,108.5C 79.8333,107.167 79.1667,107.167 78.5,108.5C 78.1667,108.5 77.8333,108.5 77.5,108.5C 77.5,107.833 77.5,107.167 77.5,106.5C 78.1667,106.5 78.5,106.167 78.5,105.5C 82.1667,103.5 85.8333,101.5 89.5,99.5 Z"/></g>
<g><path style="opacity:1" fill="#c091b5" d="M 57.5,105.5 C 56.596,106.209 56.2627,107.209 56.5,108.5C 55.1667,109.167 55.1667,109.833 56.5,110.5C 56.7373,111.791 56.404,112.791 55.5,113.5C 55.6716,114.492 55.3382,115.158 54.5,115.5C 53.3559,114.817 53.3559,115.151 54.5,116.5C 54.5,116.833 54.5,117.167 54.5,117.5C 52.8333,118.167 51.1667,118.833 49.5,119.5C 51.6232,114.633 53.4566,109.633 55,104.5C 56.4609,103.117 57.2942,103.451 57.5,105.5 Z"/></g>
<g><path style="opacity:1" fill="#e6b244" d="M 90.5,102.5 C 90.8039,103.15 91.1373,103.817 91.5,104.5C 89.2918,105.855 87.7918,107.522 87,109.5C 88.3374,108.235 89.8374,107.735 91.5,108C 89.9632,109.11 89.2965,110.61 89.5,112.5C 88.1667,112.5 86.8333,112.5 85.5,112.5C 85.5,113.5 85.5,114.5 85.5,115.5C 85.5,115.833 85.5,116.167 85.5,116.5C 84.5084,116.328 83.8417,116.662 83.5,117.5C 82.5084,117.328 81.8417,117.662 81.5,118.5C 80.5084,118.328 79.8417,118.662 79.5,119.5C 78.5084,119.328 77.8417,119.662 77.5,120.5C 77.1667,120.5 76.8333,120.5 76.5,120.5C 75.3213,117.629 75.3213,114.796 76.5,112C 75.9056,111.536 75.2389,111.369 74.5,111.5C 75.2905,110.599 76.2905,109.932 77.5,109.5C 78.1667,109.5 78.5,109.167 78.5,108.5C 79.1667,108.5 79.8333,108.5 80.5,108.5C 81.8333,108.5 82.5,107.833 82.5,106.5C 82.8333,106.5 83.1667,106.5 83.5,106.5C 84.1667,106.5 84.5,106.167 84.5,105.5C 84.8333,105.5 85.1667,105.5 85.5,105.5C 87.0009,104.248 88.6675,103.248 90.5,102.5 Z"/></g>
<g><path style="opacity:1" fill="#873777" d="M 61.5,95.5 C 60.7904,98.8595 62.1238,100.693 65.5,101C 67.0004,104.011 67.8337,103.511 68,99.5C 68.7697,98.4019 69.603,98.4019 70.5,99.5C 70.5,100.5 70.5,101.5 70.5,102.5C 69.596,103.209 69.2627,104.209 69.5,105.5C 68.3263,106.514 67.6596,107.847 67.5,109.5C 66.8333,109.5 66.5,109.833 66.5,110.5C 66.5,110.833 66.5,111.167 66.5,111.5C 65.8333,111.5 65.5,111.833 65.5,112.5C 61.7099,113.895 58.0432,115.562 54.5,117.5C 54.5,117.167 54.5,116.833 54.5,116.5C 54.5,116.167 54.5,115.833 54.5,115.5C 55.3382,115.158 55.6716,114.492 55.5,113.5C 56.404,112.791 56.7373,111.791 56.5,110.5C 56.5,109.833 56.5,109.167 56.5,108.5C 57.404,107.791 57.7373,106.791 57.5,105.5C 58.9566,102.222 60.29,98.889 61.5,95.5 Z"/></g>
<g><path style="opacity:1" fill="#ac6869" d="M 77.5,106.5 C 77.5,107.167 77.5,107.833 77.5,108.5C 73.7099,109.895 70.0432,111.562 66.5,113.5C 66.1667,113.5 65.8333,113.5 65.5,113.5C 65.5,113.167 65.5,112.833 65.5,112.5C 65.5,111.833 65.8333,111.5 66.5,111.5C 67.8333,111.167 67.8333,110.833 66.5,110.5C 66.5,109.833 66.8333,109.5 67.5,109.5C 68.1667,109.167 68.8333,108.833 69.5,108.5C 72.1809,108.961 74.8476,108.295 77.5,106.5 Z"/></g>
<g><path style="opacity:1" fill="#813074" d="M 77.5,108.5 C 77.5,108.833 77.5,109.167 77.5,109.5C 76.2905,109.932 75.2905,110.599 74.5,111.5C 72.0462,112.227 69.7128,113.227 67.5,114.5C 67.1667,114.5 66.8333,114.5 66.5,114.5C 66.5,114.167 66.5,113.833 66.5,113.5C 70.0432,111.562 73.7099,109.895 77.5,108.5 Z"/></g>
<g><path style="opacity:1" fill="#e1a432" d="M 74.5,111.5 C 75.2389,111.369 75.9056,111.536 76.5,112C 75.3213,114.796 75.3213,117.629 76.5,120.5C 75.8333,120.5 75.5,120.833 75.5,121.5C 75.1667,121.5 74.8333,121.5 74.5,121.5C 72.1815,121.992 70.1815,122.992 68.5,124.5C 68.1667,124.5 67.8333,124.5 67.5,124.5C 67.1667,124.5 66.8333,124.5 66.5,124.5C 65.1626,122.626 63.8293,120.626 62.5,118.5C 64.8263,117.855 66.493,116.522 67.5,114.5C 69.7128,113.227 72.0462,112.227 74.5,111.5 Z"/></g>
<g><path style="opacity:1" fill="#c56d41" d="M 65.5,112.5 C 65.5,112.833 65.5,113.167 65.5,113.5C 61.9568,115.438 58.2901,117.105 54.5,118.5C 54.5,118.167 54.5,117.833 54.5,117.5C 58.0432,115.562 61.7099,113.895 65.5,112.5 Z"/></g>
<g><path style="opacity:1" fill="#a03e60" d="M 65.5,113.5 C 65.5,113.833 65.5,114.167 65.5,114.5C 61.8491,116.992 57.8491,118.992 53.5,120.5C 53.8333,119.833 54.1667,119.167 54.5,118.5C 58.2901,117.105 61.9568,115.438 65.5,113.5 Z"/></g>
<g><path style="opacity:1" fill="#e0ac80" d="M 54.5,117.5 C 54.5,117.833 54.5,118.167 54.5,118.5C 54.1667,119.167 53.8333,119.833 53.5,120.5C 52.5,121.167 51.5,121.833 50.5,122.5C 49.391,122.557 48.391,122.89 47.5,123.5C 46.8333,122.167 46.1667,122.167 45.5,123.5C 44.5084,123.328 43.8417,123.662 43.5,124.5C 42.2267,123.923 42.2267,123.257 43.5,122.5C 45.5266,121.487 47.5266,120.487 49.5,119.5C 51.1667,118.833 52.8333,118.167 54.5,117.5 Z"/></g>
<g><path style="opacity:1" fill="#ebbe5f" d="M 97.5,109.5 C 98.1667,109.5 98.8333,109.5 99.5,109.5C 100.551,110.222 101.218,111.222 101.5,112.5C 92.4215,118.038 83.0881,123.038 73.5,127.5C 73.5,126.833 73.1667,126.5 72.5,126.5C 73.5063,125.604 73.5063,124.938 72.5,124.5C 73.1667,123.833 73.8333,123.167 74.5,122.5C 75.1667,122.5 75.5,122.167 75.5,121.5C 76.4916,121.672 77.1583,121.338 77.5,120.5C 78.4916,120.672 79.1583,120.338 79.5,119.5C 80.4916,119.672 81.1583,119.338 81.5,118.5C 82.4916,118.672 83.1583,118.338 83.5,117.5C 84.4916,117.672 85.1583,117.338 85.5,116.5C 86.1667,116.5 86.5,116.167 86.5,115.5C 87.4916,115.672 88.1583,115.338 88.5,114.5C 89.4916,114.672 90.1583,114.338 90.5,113.5C 91.4916,113.672 92.1583,113.338 92.5,112.5C 93.4916,112.672 94.1583,112.338 94.5,111.5C 95.1667,111.5 95.5,111.167 95.5,110.5C 96.4916,110.672 97.1583,110.338 97.5,109.5 Z"/></g>
<g><path style="opacity:1" fill="#df992b" d="M 65.5,114.5 C 65.8333,114.5 66.1667,114.5 66.5,114.5C 66.8333,114.5 67.1667,114.5 67.5,114.5C 66.493,116.522 64.8263,117.855 62.5,118.5C 63.8293,120.626 65.1626,122.626 66.5,124.5C 66.5,124.833 66.5,125.167 66.5,125.5C 64.8211,125.892 63.1545,126.392 61.5,127C 63.265,127.64 64.9317,127.473 66.5,126.5C 67.3382,126.158 67.6716,125.492 67.5,124.5C 67.8333,124.5 68.1667,124.5 68.5,124.5C 69.5279,124.926 70.8612,124.926 72.5,124.5C 73.5063,124.938 73.5063,125.604 72.5,126.5C 70.4214,126.971 68.4214,127.637 66.5,128.5C 66.1667,128.5 65.8333,128.5 65.5,128.5C 61.6929,129.693 58.0262,131.026 54.5,132.5C 52.8828,133.038 51.2161,133.371 49.5,133.5C 47.4508,133.294 47.1175,132.461 48.5,131C 50.8333,130 53.1667,129 55.5,128C 53.5,128 51.5,128 49.5,128C 51.8096,126.541 52.1429,124.708 50.5,122.5C 51.5,121.833 52.5,121.167 53.5,120.5C 57.8491,118.992 61.8491,116.992 65.5,114.5 Z"/></g>
<g><path style="opacity:1" fill="#8d2f6c" d="M 74.5,121.5 C 74.5,121.833 74.5,122.167 74.5,122.5C 73.8333,123.167 73.1667,123.833 72.5,124.5C 70.8612,124.926 69.5279,124.926 68.5,124.5C 70.1815,122.992 72.1815,121.992 74.5,121.5 Z"/></g>
<g><path style="opacity:1" fill="#df9438" d="M 50.5,122.5 C 52.1429,124.708 51.8096,126.541 49.5,128C 51.5,128 53.5,128 55.5,128C 53.1667,129 50.8333,130 48.5,131C 47.1175,132.461 47.4508,133.294 49.5,133.5C 47.7392,134.313 46.0725,135.313 44.5,136.5C 43.1266,136.657 41.7932,136.49 40.5,136C 39.4019,135.23 39.4019,134.397 40.5,133.5C 39.0695,133.421 37.7362,133.754 36.5,134.5C 35.5,134.167 34.8333,133.5 34.5,132.5C 37.3935,129.636 40.3935,126.97 43.5,124.5C 44.4916,124.672 45.1583,124.338 45.5,123.5C 46.1667,123.5 46.8333,123.5 47.5,123.5C 48.391,122.89 49.391,122.557 50.5,122.5 Z M 40.5,133.5 C 41.7985,131.901 43.4652,131.401 45.5,132C 43.9751,133.009 42.3084,133.509 40.5,133.5 Z"/></g>
<g><path style="opacity:1" fill="#9a3c71" d="M 66.5,125.5 C 66.5,125.833 66.5,126.167 66.5,126.5C 64.9317,127.473 63.265,127.64 61.5,127C 63.1545,126.392 64.8211,125.892 66.5,125.5 Z"/></g>
<g><path style="opacity:1" fill="#9e3e7e" d="M 72.5,126.5 C 73.1667,126.5 73.5,126.833 73.5,127.5C 74.3366,132.636 73.0033,136.969 69.5,140.5C 69.5875,137.402 69.0875,137.068 68,139.5C 67.6667,138.833 67.3333,138.167 67,137.5C 65.9887,138.337 64.8221,138.67 63.5,138.5C 63.0198,141.443 62.0198,144.11 60.5,146.5C 60.1667,146.5 59.8333,146.5 59.5,146.5C 59.8333,145.833 60.1667,145.167 60.5,144.5C 61.6326,141.443 62.6326,138.443 63.5,135.5C 64.6441,136.183 64.6441,135.849 63.5,134.5C 63.5,133.833 63.8333,133.5 64.5,133.5C 65.404,132.791 65.7373,131.791 65.5,130.5C 66.3382,130.158 66.6716,129.492 66.5,128.5C 68.4214,127.637 70.4214,126.971 72.5,126.5 Z"/></g>
<g><path style="opacity:1" fill="#549fb4" d="M 100.5,132.5 C 98.5,135.5 96.5,138.5 94.5,141.5C 93.8333,141.5 93.1667,141.5 92.5,141.5C 92.5,140.833 92.1667,140.5 91.5,140.5C 91.5,140.167 91.5,139.833 91.5,139.5C 90.1667,137.5 88.5,135.833 86.5,134.5C 86.5,133.833 86.1667,133.5 85.5,133.5C 84.6497,131.415 84.3163,129.415 84.5,127.5C 86.3523,126.401 88.1856,125.401 90,124.5C 93.3895,127.4 96.8895,130.066 100.5,132.5 Z"/></g>
<g><path style="opacity:1" fill="#98226d" d="M 65.5,128.5 C 65.5,129.167 65.5,129.833 65.5,130.5C 64.596,131.209 64.2627,132.209 64.5,133.5C 63.8333,133.5 63.5,133.833 63.5,134.5C 63.5,134.833 63.5,135.167 63.5,135.5C 62.6326,138.443 61.6326,141.443 60.5,144.5C 57.5558,143.412 54.5558,143.412 51.5,144.5C 52.1906,140.404 53.1906,136.404 54.5,132.5C 58.0262,131.026 61.6929,129.693 65.5,128.5 Z"/></g>
<g><path style="opacity:1" fill="#5aa0a1" d="M 100.5,132.5 C 103.485,133.326 106.151,134.659 108.5,136.5C 106.161,137.637 103.828,137.804 101.5,137C 104.557,139.723 107.89,142.056 111.5,144C 110.619,144.708 109.953,145.542 109.5,146.5C 107.858,145.133 106.192,144.799 104.5,145.5C 106.95,146.711 108.95,148.378 110.5,150.5C 110.281,152.915 108.948,153.915 106.5,153.5C 103.888,152.221 101.555,150.555 99.5,148.5C 99.5,147.833 99.8333,147.5 100.5,147.5C 101.833,147.167 101.833,146.833 100.5,146.5C 100.158,145.662 99.4916,145.328 98.5,145.5C 98.5,144.833 98.1667,144.5 97.5,144.5C 97.5,143.833 97.1667,143.5 96.5,143.5C 96.1667,143.5 95.8333,143.5 95.5,143.5C 95.1667,142.833 94.8333,142.167 94.5,141.5C 96.5,138.5 98.5,135.5 100.5,132.5 Z"/></g>
<g><path style="opacity:1" fill="#a0226f" d="M 54.5,132.5 C 53.1906,136.404 52.1906,140.404 51.5,144.5C 50.8333,145.5 50.1667,146.5 49.5,147.5C 47.8762,147.64 46.7096,146.973 46,145.5C 45.586,145.957 45.086,146.291 44.5,146.5C 43.5344,144.604 43.2011,142.604 43.5,140.5C 43.4326,139.041 43.7659,137.708 44.5,136.5C 46.0725,135.313 47.7392,134.313 49.5,133.5C 51.2161,133.371 52.8828,133.038 54.5,132.5 Z"/></g>
<g><path style="opacity:1" fill="#67a593" d="M 108.5,136.5 C 113.651,138.576 118.651,140.91 123.5,143.5C 123.842,144.338 124.508,144.672 125.5,144.5C 125.842,145.338 126.508,145.672 127.5,145.5C 127.5,145.833 127.5,146.167 127.5,146.5C 126.244,146.461 125.244,146.961 124.5,148C 126.349,149.093 128.016,150.426 129.5,152C 129.167,152.167 128.833,152.333 128.5,152.5C 125.169,150.328 122.002,147.995 119,145.5C 118.392,147.154 117.892,148.821 117.5,150.5C 117.167,150.5 116.833,150.5 116.5,150.5C 116.5,149.833 116.167,149.5 115.5,149.5C 115.167,149.5 114.833,149.5 114.5,149.5C 114.5,148.833 114.167,148.5 113.5,148.5C 113.167,148.5 112.833,148.5 112.5,148.5C 111.71,147.599 110.71,146.932 109.5,146.5C 109.953,145.542 110.619,144.708 111.5,144C 107.89,142.056 104.557,139.723 101.5,137C 103.828,137.804 106.161,137.637 108.5,136.5 Z"/></g>
<g><path style="opacity:1" fill="#bad8de" d="M 85.5,133.5 C 86.1667,133.5 86.5,133.833 86.5,134.5C 88.5,135.833 90.1667,137.5 91.5,139.5C 90.1667,139.833 90.1667,140.167 91.5,140.5C 92.1667,140.5 92.5,140.833 92.5,141.5C 92.9731,142.906 93.9731,143.573 95.5,143.5C 95.8333,144.833 96.1667,144.833 96.5,143.5C 97.1667,143.5 97.5,143.833 97.5,144.5C 98.1667,144.5 98.5,144.833 98.5,145.5C 98.8417,146.338 99.5084,146.672 100.5,146.5C 100.5,146.833 100.5,147.167 100.5,147.5C 99.8333,147.5 99.5,147.833 99.5,148.5C 93.2373,145.239 88.2373,140.572 84.5,134.5C 84.6236,133.893 84.9569,133.56 85.5,133.5 Z"/></g>
<g><path style="opacity:1" fill="#ae3277" d="M 43.5,140.5 C 43.2011,142.604 43.5344,144.604 44.5,146.5C 45.086,146.291 45.586,145.957 46,145.5C 46.7096,146.973 47.8762,147.64 49.5,147.5C 50.1894,148.774 51.0228,148.774 52,147.5C 52.3173,149.301 52.984,149.634 54,148.5C 55.4381,149.9 56.2714,151.567 56.5,153.5C 56.7406,155.898 56.0739,157.898 54.5,159.5C 52.1867,160.392 51.8534,159.558 53.5,157C 51.4663,155.019 48.9663,153.852 46,153.5C 44.699,153.639 43.8656,154.305 43.5,155.5C 43.5,155.833 43.5,156.167 43.5,156.5C 40.5001,158.668 38.0001,161.334 36,164.5C 35.0565,163.737 34.5565,162.737 34.5,161.5C 37.718,154.487 40.718,147.487 43.5,140.5 Z"/></g>
<g><path style="opacity:1" fill="#a73679" d="M 69.5,140.5 C 69.3478,148.473 65.8478,154.473 59,158.5C 58.161,155.86 58.661,153.527 60.5,151.5C 60,150.5 59.5,149.5 59,148.5C 58.2432,150.315 57.4098,151.981 56.5,153.5C 56.2714,151.567 55.4381,149.9 54,148.5C 52.984,149.634 52.3173,149.301 52,147.5C 51.0228,148.774 50.1894,148.774 49.5,147.5C 50.1667,146.5 50.8333,145.5 51.5,144.5C 54.5558,143.412 57.5558,143.412 60.5,144.5C 60.1667,145.167 59.8333,145.833 59.5,146.5C 59.8333,147.833 60.1667,147.833 60.5,146.5C 62.0198,144.11 63.0198,141.443 63.5,138.5C 64.8221,138.67 65.9887,138.337 67,137.5C 67.3333,138.167 67.6667,138.833 68,139.5C 69.0875,137.068 69.5875,137.402 69.5,140.5 Z"/></g>
<g><path style="opacity:1" fill="#79ad8a" d="M 140.5,150.5 C 137.407,150.827 134.407,151.327 131.5,152C 132.328,152.915 133.328,153.581 134.5,154C 134,154.167 133.5,154.333 133,154.5C 130.676,153.307 128.51,153.307 126.5,154.5C 124.716,154.107 123.05,153.441 121.5,152.5C 121.167,152.5 120.833,152.5 120.5,152.5C 119.71,151.599 118.71,150.932 117.5,150.5C 117.892,148.821 118.392,147.154 119,145.5C 122.002,147.995 125.169,150.328 128.5,152.5C 128.833,152.333 129.167,152.167 129.5,152C 128.016,150.426 126.349,149.093 124.5,148C 125.244,146.961 126.244,146.461 127.5,146.5C 128.833,146.167 128.833,145.833 127.5,145.5C 127.158,144.662 126.492,144.328 125.5,144.5C 125.158,143.662 124.492,143.328 123.5,143.5C 123.369,142.624 123.702,141.957 124.5,141.5C 130.381,143.77 135.714,146.77 140.5,150.5 Z"/></g>
<g><path style="opacity:1" fill="#83b5a1" d="M 109.5,146.5 C 110.71,146.932 111.71,147.599 112.5,148.5C 112.833,149.833 113.167,149.833 113.5,148.5C 114.167,148.5 114.5,148.833 114.5,149.5C 114.833,150.833 115.167,150.833 115.5,149.5C 116.167,149.5 116.5,149.833 116.5,150.5C 116.833,151.833 117.167,151.833 117.5,150.5C 118.71,150.932 119.71,151.599 120.5,152.5C 120.833,153.833 121.167,153.833 121.5,152.5C 123.05,153.441 124.716,154.107 126.5,154.5C 127.167,154.833 127.833,155.167 128.5,155.5C 128.44,156.043 128.107,156.376 127.5,156.5C 124.285,155.027 120.951,154.527 117.5,155C 116.979,156.811 116.979,158.977 117.5,161.5C 113.618,159.066 109.952,156.399 106.5,153.5C 108.948,153.915 110.281,152.915 110.5,150.5C 108.95,148.378 106.95,146.711 104.5,145.5C 106.192,144.799 107.858,145.133 109.5,146.5 Z"/></g>
<g><path style="opacity:1" fill="#bc4a86" d="M 54.5,159.5 C 54.5,161.5 53.5,162.5 51.5,162.5C 50.8333,162.5 50.5,162.167 50.5,161.5C 51.5632,155.066 50.8965,155.066 48.5,161.5C 47.5,161.833 46.8333,162.5 46.5,163.5C 43.0679,164.599 41.0679,166.933 40.5,170.5C 39.8333,170.5 39.5,170.833 39.5,171.5C 38.5028,171.53 37.8361,171.03 37.5,170C 39.6493,165.537 41.6493,161.037 43.5,156.5C 44.8333,156.167 44.8333,155.833 43.5,155.5C 43.8656,154.305 44.699,153.639 46,153.5C 48.9663,153.852 51.4663,155.019 53.5,157C 51.8534,159.558 52.1867,160.392 54.5,159.5 Z M 50.5,161.5 C 49.6043,162.506 48.9377,162.506 48.5,161.5C 50.8965,155.066 51.5632,155.066 50.5,161.5 Z"/></g>
<g><path style="opacity:1" fill="#88b366" d="M 153.5,156.5 C 156.516,156.841 159.182,158.007 161.5,160C 158.362,161.244 155.028,161.911 151.5,162C 155.095,162.561 158.428,163.728 161.5,165.5C 159.994,166.747 158.494,166.747 157,165.5C 154.688,165.955 152.688,166.955 151,168.5C 150.333,167.167 149.333,166.167 148,165.5C 147.689,166.742 148.189,167.742 149.5,168.5C 148.758,169.287 147.925,169.953 147,170.5C 144.377,169.373 141.877,168.039 139.5,166.5C 140.122,164.665 141.456,163.498 143.5,163C 143.167,162.667 142.833,162.333 142.5,162C 145.14,161.104 147.307,159.604 149,157.5C 149.333,157.833 149.667,158.167 150,158.5C 150.71,157.027 151.876,156.36 153.5,156.5 Z"/></g>
<g><path style="opacity:1" fill="#eebed7" d="M 48.5,161.5 C 48.9377,162.506 49.6043,162.506 50.5,161.5C 50.5,162.167 50.8333,162.5 51.5,162.5C 49.9259,163.928 48.2592,164.261 46.5,163.5C 46.8333,162.5 47.5,161.833 48.5,161.5 Z"/></g>
<g><path style="opacity:1" fill="#78ac83" d="M 128.5,155.5 C 129.473,155.987 130.473,156.487 131.5,157C 130.418,158.33 129.751,159.83 129.5,161.5C 133.193,163.768 133.193,164.435 129.5,163.5C 127.998,164.083 126.665,164.916 125.5,166C 127.319,166.74 128.652,167.907 129.5,169.5C 124.419,168.335 120.419,165.669 117.5,161.5C 116.979,158.977 116.979,156.811 117.5,155C 120.951,154.527 124.285,155.027 127.5,156.5C 128.107,156.376 128.44,156.043 128.5,155.5 Z"/></g>
<g><path style="opacity:1" fill="#78ab6f" d="M 140.5,150.5 C 145.022,152.264 149.355,154.264 153.5,156.5C 151.876,156.36 150.71,157.027 150,158.5C 149.667,158.167 149.333,157.833 149,157.5C 147.307,159.604 145.14,161.104 142.5,162C 142.833,162.333 143.167,162.667 143.5,163C 141.456,163.498 140.122,164.665 139.5,166.5C 138.957,166.56 138.624,166.893 138.5,167.5C 139.833,168.5 141.167,169.5 142.5,170.5C 142.291,171.086 141.957,171.586 141.5,172C 138.5,172.667 135.5,172.667 132.5,172C 131.058,171.623 130.058,170.79 129.5,169.5C 128.652,167.907 127.319,166.74 125.5,166C 126.665,164.916 127.998,164.083 129.5,163.5C 133.193,164.435 133.193,163.768 129.5,161.5C 129.751,159.83 130.418,158.33 131.5,157C 130.473,156.487 129.473,155.987 128.5,155.5C 127.833,155.167 127.167,154.833 126.5,154.5C 128.51,153.307 130.676,153.307 133,154.5C 133.5,154.333 134,154.167 134.5,154C 133.328,153.581 132.328,152.915 131.5,152C 134.407,151.327 137.407,150.827 140.5,150.5 Z"/></g>
<g><path style="opacity:1" fill="#a5cac1" d="M 154.5,168.5 C 156.288,167.378 158.288,167.211 160.5,168C 159.975,168.692 159.308,169.192 158.5,169.5C 157.264,168.754 155.93,168.421 154.5,168.5 Z"/></g>
<g><path style="opacity:1" fill="#df83af" d="M 39.5,171.5 C 40.1667,171.5 40.5,171.167 40.5,170.5C 41.8267,169.2 43.16,167.867 44.5,166.5C 45.1289,169.624 43.7956,171.958 40.5,173.5C 39.7025,173.043 39.3691,172.376 39.5,171.5 Z"/></g>
</svg>
