<?xml version="1.0" encoding="UTF-8"?>
<!DOCTYPE svg PUBLIC "-//W3C//DTD SVG 1.1//EN" "http://www.w3.org/Graphics/SVG/1.1/DTD/svg11.dtd">
<svg xmlns="http://www.w3.org/2000/svg" version="1.1" width="200px" height="200px" style="shape-rendering:geometricPrecision; text-rendering:geometricPrecision; image-rendering:optimizeQuality; fill-rule:evenodd; clip-rule:evenodd" xmlns:xlink="http://www.w3.org/1999/xlink">
<g><path style="opacity:1" fill="#fefefe" d="M -0.5,-0.5 C 66.1667,-0.5 132.833,-0.5 199.5,-0.5C 199.5,66.1667 199.5,132.833 199.5,199.5C 132.833,199.5 66.1667,199.5 -0.5,199.5C -0.5,132.833 -0.5,66.1667 -0.5,-0.5 Z"/></g>
<g><path style="opacity:1" fill="#e7ba45" d="M 105.5,32.5 C 104.31,34.5533 103.643,36.8866 103.5,39.5C 103.979,42.3724 103.979,45.0391 103.5,47.5C 97.3044,48.1879 91.6378,46.8546 86.5,43.5C 88.8275,42.276 91.1608,42.276 93.5,43.5C 94.5,43.1667 95.1667,42.5 95.5,41.5C 89.2008,41.479 83.5341,39.6457 78.5,36C 75.3004,35.8985 72.3004,35.2319 69.5,34C 78.5734,34.0748 87.5734,34.7414 96.5,36C 89.9638,33.5994 83.2971,31.5994 76.5,30C 76.0426,29.586 75.7093,29.086 75.5,28.5C 85.9207,27.3227 95.9207,28.6561 105.5,32.5 Z"/></g>
<g><path style="opacity:1" fill="#e8bb54" d="M 67.5,35.5 C 70.738,36.8517 74.0714,38.0184 77.5,39C 74.7929,39.3283 72.1262,38.995 69.5,38C 68.244,37.5831 67.5774,36.7498 67.5,35.5 Z"/></g>
<g><path style="opacity:1" fill="#f3e699" d="M 119.5,44.5 C 125.789,48.47 129.789,54.1367 131.5,61.5C 130.833,63.8333 130.167,66.1667 129.5,68.5C 131.131,59.4362 128.131,52.4362 120.5,47.5C 117.898,45.1904 114.898,43.3571 111.5,42C 114.387,41.9335 117.054,42.7668 119.5,44.5 Z"/></g>
<g><path style="opacity:1" fill="#e9d842" d="M 120.5,37.5 C 141.348,50.0318 145.014,66.3651 131.5,86.5C 136.344,78.1232 138.177,69.1232 137,59.5C 136.64,57.3921 135.973,55.3921 135,53.5C 138.335,70.842 133.168,85.1754 119.5,96.5C 118.711,96.2172 118.044,95.7172 117.5,95C 120.54,91.7397 123.206,88.2397 125.5,84.5C 129.841,77.4696 131.841,69.803 131.5,61.5C 129.789,54.1367 125.789,48.47 119.5,44.5C 121.14,43.2099 121.64,41.5433 121,39.5C 120.667,40.5 120.333,41.5 120,42.5C 119.22,40.6131 119.387,38.9464 120.5,37.5 Z"/></g>
<g><path style="opacity:1" fill="#b2adc5" d="M 79.5,45.5 C 79.5754,49.8967 79.0754,54.23 78,58.5C 77.5017,55.1832 77.335,51.8499 77.5,48.5C 78.1667,47.5 78.8333,46.5 79.5,45.5 Z"/></g>
<g><path style="opacity:1" fill="#7b6f9a" d="M 82.5,48.5 C 84.3079,49.9179 84.9746,51.9179 84.5,54.5C 84.8064,57.3854 84.4731,60.0521 83.5,62.5C 83.7744,57.737 83.441,53.0704 82.5,48.5 Z"/></g>
<g><path style="opacity:1" fill="#e9d241" d="M 120.5,47.5 C 128.131,52.4362 131.131,59.4362 129.5,68.5C 128.829,73.845 127.163,78.845 124.5,83.5C 121.086,90.4081 119.753,90.0748 120.5,82.5C 122.091,79.6484 123.424,76.6484 124.5,73.5C 126.439,69.4689 126.939,65.1355 126,60.5C 125.74,64.2498 125.073,67.9164 124,71.5C 123.159,68.3718 122.325,65.3718 121.5,62.5C 121.107,60.7162 120.441,59.0495 119.5,57.5C 119.187,53.9581 119.521,50.6248 120.5,47.5 Z"/></g>
<g><path style="opacity:1" fill="#e9ca4b" d="M 105.5,32.5 C 110.915,33.1938 115.915,34.8605 120.5,37.5C 119.387,38.9464 119.22,40.6131 120,42.5C 120.333,41.5 120.667,40.5 121,39.5C 121.64,41.5433 121.14,43.2099 119.5,44.5C 117.054,42.7668 114.387,41.9335 111.5,42C 114.898,43.3571 117.898,45.1904 120.5,47.5C 119.521,50.6248 119.187,53.9581 119.5,57.5C 118.577,56.6971 117.577,56.5304 116.5,57C 117.701,57.9025 118.535,59.0692 119,60.5C 119.492,65.5506 119.492,70.5506 119,75.5C 121.173,71.4901 122.006,67.1568 121.5,62.5C 122.325,65.3718 123.159,68.3718 124,71.5C 125.073,67.9164 125.74,64.2498 126,60.5C 126.939,65.1355 126.439,69.4689 124.5,73.5C 118.807,80.1894 113.14,86.8561 107.5,93.5C 106.105,91.3074 105.105,88.9741 104.5,86.5C 109.328,81.1642 112.661,74.9976 114.5,68C 114.006,65.4315 113.006,63.0982 111.5,61C 105.826,58.6583 100.659,55.4916 96,51.5C 95.5683,50.3999 96.0683,49.7332 97.5,49.5C 99.8566,50.0951 102.023,51.0951 104,52.5C 104.308,51.6919 104.808,51.0253 105.5,50.5C 107.583,52.2485 109.916,53.0818 112.5,53C 109.737,50.6258 106.737,48.7925 103.5,47.5C 103.979,45.0391 103.979,42.3724 103.5,39.5C 103.643,36.8866 104.31,34.5533 105.5,32.5 Z"/></g>
<g><path style="opacity:1" fill="#4e2d6c" d="M 82.5,48.5 C 83.441,53.0704 83.7744,57.737 83.5,62.5C 82.8115,70.6089 81.4782,78.6089 79.5,86.5C 78.8602,83.276 76.8602,81.276 73.5,80.5C 71.6822,84.1356 69.8489,87.8022 68,91.5C 71.1776,82.2955 73.6776,72.7955 75.5,63C 75.3333,62.5 75.1667,62 75,61.5C 72.7837,66.2411 71.4503,71.2411 71,76.5C 70.4867,75.4734 69.9867,74.4734 69.5,73.5C 72.1222,65.3442 73.9555,57.0109 75,48.5C 75.9772,47.2264 76.8106,47.2264 77.5,48.5C 77.335,51.8499 77.5017,55.1832 78,58.5C 79.0754,54.23 79.5754,49.8967 79.5,45.5C 79.56,44.9569 79.8933,44.6236 80.5,44.5C 81.1719,45.9492 81.8386,47.2825 82.5,48.5 Z"/></g>
<g><path style="opacity:1" fill="#f5e8a9" d="M 119.5,57.5 C 120.441,59.0495 121.107,60.7162 121.5,62.5C 122.006,67.1568 121.173,71.4901 119,75.5C 119.492,70.5506 119.492,65.5506 119,60.5C 118.535,59.0692 117.701,57.9025 116.5,57C 117.577,56.5304 118.577,56.6971 119.5,57.5 Z"/></g>
<g><path style="opacity:1" fill="#fcfaeb" d="M 131.5,61.5 C 131.841,69.803 129.841,77.4696 125.5,84.5C 124.833,84.5 124.5,84.1667 124.5,83.5C 127.163,78.845 128.829,73.845 129.5,68.5C 130.167,66.1667 130.833,63.8333 131.5,61.5 Z"/></g>
<g><path style="opacity:1" fill="#c4b8cd" d="M 82.5,84.5 C 81.4586,84.9596 80.6253,86.2929 80,88.5C 79.5357,87.9056 79.369,87.2389 79.5,86.5C 81.4782,78.6089 82.8115,70.6089 83.5,62.5C 84.4731,60.0521 84.8064,57.3854 84.5,54.5C 85.1499,54.1961 85.8165,53.8627 86.5,53.5C 87.8615,64.2784 86.5281,74.6117 82.5,84.5 Z"/></g>
<g><path style="opacity:1" fill="#702a6e" d="M 79.5,86.5 C 79.369,87.2389 79.5357,87.9056 80,88.5C 80.6253,86.2929 81.4586,84.9596 82.5,84.5C 80.9104,91.4483 79.577,98.4483 78.5,105.5C 78.5,106.167 78.1667,106.5 77.5,106.5C 74.9933,107.892 72.3267,108.892 69.5,109.5C 71.987,101.544 74.1536,93.5442 76,85.5C 72.59,94.5681 69.09,103.568 65.5,112.5C 61.7099,113.895 58.0432,115.562 54.5,117.5C 54.8333,116.167 55.1667,114.833 55.5,113.5C 59.561,99.9849 64.2277,86.6516 69.5,73.5C 69.9867,74.4734 70.4867,75.4734 71,76.5C 71.4503,71.2411 72.7837,66.2411 75,61.5C 75.1667,62 75.3333,62.5 75.5,63C 73.6776,72.7955 71.1776,82.2955 68,91.5C 69.8489,87.8022 71.6822,84.1356 73.5,80.5C 76.8602,81.276 78.8602,83.276 79.5,86.5 Z"/></g>
<g><path style="opacity:1" fill="#fbf6e1" d="M 124.5,73.5 C 123.424,76.6484 122.091,79.6484 120.5,82.5C 115.167,88.5 109.5,94.1667 103.5,99.5C 101.856,100.366 100.189,100.866 98.5,101C 101.665,98.6653 104.665,96.1653 107.5,93.5C 113.14,86.8561 118.807,80.1894 124.5,73.5 Z"/></g>
<g><path style="opacity:1" fill="#eaca4e" d="M 120.5,82.5 C 119.753,90.0748 121.086,90.4081 124.5,83.5C 124.5,84.1667 124.833,84.5 125.5,84.5C 123.206,88.2397 120.54,91.7397 117.5,95C 118.044,95.7172 118.711,96.2172 119.5,96.5C 115.578,102.299 110.578,106.966 104.5,110.5C 104.815,106.629 104.482,102.962 103.5,99.5C 109.5,94.1667 115.167,88.5 120.5,82.5 Z"/></g>
<g><path style="opacity:1" fill="#f1e382" d="M 131.5,86.5 C 130.657,89.5162 129.157,92.1829 127,94.5C 125.887,96.3293 124.387,97.1626 122.5,97C 125.399,93.3354 128.399,89.8354 131.5,86.5 Z"/></g>
<g><path style="opacity:1" fill="#e7b945" d="M 104.5,86.5 C 105.105,88.9741 106.105,91.3074 107.5,93.5C 104.665,96.1653 101.665,98.6653 98.5,101C 100.189,100.866 101.856,100.366 103.5,99.5C 104.482,102.962 104.815,106.629 104.5,110.5C 94.0468,116.393 83.3801,121.727 72.5,126.5C 71.8333,126.5 71.1667,126.5 70.5,126.5C 69.8333,126.5 69.5,126.167 69.5,125.5C 71.2608,124.687 72.9275,123.687 74.5,122.5C 83.5963,118.451 92.263,113.618 100.5,108C 91.8341,111.83 83.1674,115.997 74.5,120.5C 73.2248,117.604 73.2248,114.604 74.5,111.5C 75.2905,110.599 76.2905,109.932 77.5,109.5C 81.4409,107.86 85.1076,105.694 88.5,103C 84.9529,104.429 81.2862,105.929 77.5,107.5C 77.5,107.167 77.5,106.833 77.5,106.5C 78.1667,106.5 78.5,106.167 78.5,105.5C 80.5932,104.955 82.5932,104.122 84.5,103C 91.3315,97.6656 97.9982,92.1656 104.5,86.5 Z"/></g>
<g><path style="opacity:1" fill="#f9eed7" d="M 77.5,109.5 C 77.5,109.167 77.5,108.833 77.5,108.5C 77.5,108.167 77.5,107.833 77.5,107.5C 81.2862,105.929 84.9529,104.429 88.5,103C 85.1076,105.694 81.4409,107.86 77.5,109.5 Z"/></g>
<g><path style="opacity:1" fill="#be8eb3" d="M 55.5,113.5 C 55.1667,114.833 54.8333,116.167 54.5,117.5C 52.9382,117.733 51.6049,118.4 50.5,119.5C 51.6419,113.907 53.4752,108.574 56,103.5C 56.0783,106.371 55.5783,109.205 54.5,112C 54.5699,112.765 54.9033,113.265 55.5,113.5 Z"/></g>
<g><path style="opacity:1" fill="#c099ba" d="M 62.5,103.5 C 63.0967,103.735 63.4301,104.235 63.5,105C 62.8037,106.893 61.9704,108.726 61,110.5C 60.8648,108.078 61.3648,105.745 62.5,103.5 Z"/></g>
<g><path style="opacity:1" fill="#e0cbd4" d="M 69.5,109.5 C 68.4489,110.222 67.7822,111.222 67.5,112.5C 67.1667,113.167 66.8333,113.833 66.5,114.5C 66.5,115.167 66.1667,115.5 65.5,115.5C 65.5,114.833 65.5,114.167 65.5,113.5C 65.5,113.167 65.5,112.833 65.5,112.5C 69.09,103.568 72.59,94.5681 76,85.5C 74.1536,93.5442 71.987,101.544 69.5,109.5 Z"/></g>
<g><path style="opacity:1" fill="#a45b5d" d="M 77.5,106.5 C 77.5,106.833 77.5,107.167 77.5,107.5C 77.5,107.833 77.5,108.167 77.5,108.5C 74.1667,109.833 70.8333,111.167 67.5,112.5C 67.7822,111.222 68.4489,110.222 69.5,109.5C 72.3267,108.892 74.9933,107.892 77.5,106.5 Z"/></g>
<g><path style="opacity:1" fill="#813074" d="M 77.5,108.5 C 77.5,108.833 77.5,109.167 77.5,109.5C 76.2905,109.932 75.2905,110.599 74.5,111.5C 71.8333,112.5 69.1667,113.5 66.5,114.5C 66.8333,113.833 67.1667,113.167 67.5,112.5C 70.8333,111.167 74.1667,109.833 77.5,108.5 Z"/></g>
<g><path style="opacity:1" fill="#d1875d" d="M 65.5,112.5 C 65.5,112.833 65.5,113.167 65.5,113.5C 61.1362,115.344 57.1362,117.677 53.5,120.5C 52.0697,121.537 50.403,122.204 48.5,122.5C 48.5654,122.062 48.3988,121.728 48,121.5C 46.6626,122.765 45.1626,123.265 43.5,123C 45.6093,121.354 47.9427,120.188 50.5,119.5C 51.6049,118.4 52.9382,117.733 54.5,117.5C 58.0432,115.562 61.7099,113.895 65.5,112.5 Z"/></g>
<g><path style="opacity:1" fill="#faf1de" d="M 74.5,122.5 C 74.5,122.167 74.5,121.833 74.5,121.5C 74.5,121.167 74.5,120.833 74.5,120.5C 83.1674,115.997 91.8341,111.83 100.5,108C 92.263,113.618 83.5963,118.451 74.5,122.5 Z"/></g>
<g><path style="opacity:1" fill="#a03e60" d="M 65.5,113.5 C 65.5,114.167 65.5,114.833 65.5,115.5C 61.5044,117.164 57.5044,118.831 53.5,120.5C 57.1362,117.677 61.1362,115.344 65.5,113.5 Z"/></g>
<g><path style="opacity:1" fill="#df992c" d="M 74.5,111.5 C 73.2248,114.604 73.2248,117.604 74.5,120.5C 74.5,120.833 74.5,121.167 74.5,121.5C 72.742,121.877 71.0754,122.544 69.5,123.5C 68.2267,124.257 68.2267,124.923 69.5,125.5C 69.5,126.167 69.8333,126.5 70.5,126.5C 69.3285,127.345 67.9952,128.011 66.5,128.5C 65.209,128.263 64.209,128.596 63.5,129.5C 60.2542,130.054 57.2542,131.054 54.5,132.5C 51.1667,133.5 47.8333,134.5 44.5,135.5C 43.1266,135.657 41.7932,135.49 40.5,135C 42.3451,133.577 44.3451,132.41 46.5,131.5C 46.1667,131.167 45.8333,130.833 45.5,130.5C 41.9417,132.482 38.275,133.149 34.5,132.5C 38.8438,128.666 43.5105,125.333 48.5,122.5C 50.403,122.204 52.0697,121.537 53.5,120.5C 57.5044,118.831 61.5044,117.164 65.5,115.5C 66.1667,115.5 66.5,115.167 66.5,114.5C 69.1667,113.5 71.8333,112.5 74.5,111.5 Z"/></g>
<g><path style="opacity:1" fill="#8d2f6c" d="M 74.5,121.5 C 74.5,121.833 74.5,122.167 74.5,122.5C 72.9275,123.687 71.2608,124.687 69.5,125.5C 68.2267,124.923 68.2267,124.257 69.5,123.5C 71.0754,122.544 72.742,121.877 74.5,121.5 Z"/></g>
<g><path style="opacity:1" fill="#9a3c71" d="M 64.5,125.5 C 66.3786,125.393 66.7119,125.893 65.5,127C 64.1667,127.667 62.8333,127.667 61.5,127C 62.7375,126.768 63.7375,126.268 64.5,125.5 Z"/></g>
<g><path style="opacity:1" fill="#e6c8d3" d="M 63.5,129.5 C 64.209,128.596 65.209,128.263 66.5,128.5C 66.1743,131.311 65.3409,133.978 64,136.5C 64.4115,134.005 64.2449,131.671 63.5,129.5 Z"/></g>
<g><path style="opacity:1" fill="#4c9cb2" d="M 100.5,132.5 C 98.9059,135.764 96.5725,138.431 93.5,140.5C 91.1667,138.5 88.8333,136.5 86.5,134.5C 85.3855,131.823 85.3855,129.156 86.5,126.5C 87.4776,126.977 88.3109,127.643 89,128.5C 88.7374,127.049 88.9041,125.716 89.5,124.5C 93.019,127.421 96.6857,130.087 100.5,132.5 Z"/></g>
<g><path style="opacity:1" fill="#bfdbe1" d="M 86.5,134.5 C 88.8333,136.5 91.1667,138.5 93.5,140.5C 96.5863,143.223 99.9196,145.723 103.5,148C 102.181,148.195 100.847,148.028 99.5,147.5C 93.1755,145.016 88.1755,140.85 84.5,135C 85.0944,134.536 85.7611,134.369 86.5,134.5 Z"/></g>
<g><path style="opacity:1" fill="#9c2b72" d="M 70.5,126.5 C 71.1667,126.5 71.8333,126.5 72.5,126.5C 74.1994,131.18 73.366,135.513 70,139.5C 69.8488,147.471 66.3488,153.471 59.5,157.5C 58.5105,155.412 58.8439,153.412 60.5,151.5C 60.8086,148.528 60.8086,146.194 60.5,144.5C 58.0075,143.226 55.3408,142.56 52.5,142.5C 52.5758,139.027 53.2424,135.694 54.5,132.5C 57.2542,131.054 60.2542,130.054 63.5,129.5C 64.2449,131.671 64.4115,134.005 64,136.5C 65.3409,133.978 66.1743,131.311 66.5,128.5C 67.9952,128.011 69.3285,127.345 70.5,126.5 Z"/></g>
<g><path style="opacity:1" fill="#569e9f" d="M 100.5,132.5 C 105.693,134.928 110.693,137.595 115.5,140.5C 114.21,141.058 113.377,142.058 113,143.5C 112.51,142.207 112.343,140.873 112.5,139.5C 108.424,139.719 104.757,138.886 101.5,137C 104.557,139.723 107.89,142.056 111.5,144C 110.619,144.708 109.953,145.542 109.5,146.5C 107.858,145.133 106.192,144.799 104.5,145.5C 106.565,146.857 108.565,148.19 110.5,149.5C 110.912,151.973 109.912,153.306 107.5,153.5C 104.467,151.984 101.8,149.984 99.5,147.5C 100.847,148.028 102.181,148.195 103.5,148C 99.9196,145.723 96.5863,143.223 93.5,140.5C 96.5725,138.431 98.9059,135.764 100.5,132.5 Z"/></g>
<g><path style="opacity:1" fill="#63a28e" d="M 115.5,140.5 C 118.704,141.383 121.371,143.05 123.5,145.5C 122.761,145.369 122.094,145.536 121.5,146C 124.167,148 126.833,150 129.5,152C 127.632,152.004 125.798,151.504 124,150.5C 122.699,150.639 121.866,151.305 121.5,152.5C 117.5,150.5 113.5,148.5 109.5,146.5C 109.953,145.542 110.619,144.708 111.5,144C 107.89,142.056 104.557,139.723 101.5,137C 104.757,138.886 108.424,139.719 112.5,139.5C 112.343,140.873 112.51,142.207 113,143.5C 113.377,142.058 114.21,141.058 115.5,140.5 Z"/></g>
<g><path style="opacity:1" fill="#a92572" d="M 54.5,132.5 C 53.2424,135.694 52.5758,139.027 52.5,142.5C 55.3408,142.56 58.0075,143.226 60.5,144.5C 57.3322,149.824 54.8322,155.49 53,161.5C 52.1072,162.711 51.2739,162.711 50.5,161.5C 52.9794,159.031 52.8128,157.031 50,155.5C 49.3333,157.5 48.6667,159.5 48,161.5C 44.5,163.667 41.6667,166.5 39.5,170C 38.8333,170.667 38.1667,170.667 37.5,170C 40.7385,164.7 43.2385,159.2 45,153.5C 42.5374,156.965 39.7041,160.131 36.5,163C 35.5165,163.591 34.8499,163.257 34.5,162C 38.8258,153.52 42.1591,144.686 44.5,135.5C 47.8333,134.5 51.1667,133.5 54.5,132.5 Z"/></g>
<g><path style="opacity:1" fill="#c0d9d0" d="M 109.5,146.5 C 113.5,148.5 117.5,150.5 121.5,152.5C 123.359,153.594 125.359,154.427 127.5,155C 128.696,155.654 128.696,156.154 127.5,156.5C 121.545,154.741 115.878,152.407 110.5,149.5C 108.565,148.19 106.565,146.857 104.5,145.5C 106.192,144.799 107.858,145.133 109.5,146.5 Z"/></g>
<g><path style="opacity:1" fill="#72a86c" d="M 147.5,154.5 C 145.248,154.916 143.748,156.249 143,158.5C 138.732,156.203 138.566,156.703 142.5,160C 140.144,161.827 139.477,163.993 140.5,166.5C 139.833,166.5 139.167,166.5 138.5,166.5C 134.74,164.784 131.073,162.784 127.5,160.5C 128.051,157.91 129.384,157.244 131.5,158.5C 132.386,157.675 132.719,156.675 132.5,155.5C 133.873,155.657 135.207,155.49 136.5,155C 134.668,154.252 133.001,153.252 131.5,152C 132.527,151.487 133.527,150.987 134.5,150.5C 138.1,149.821 137.767,148.987 133.5,148C 132.112,147.111 132.278,146.611 134,146.5C 138.465,149.312 142.965,151.979 147.5,154.5 Z"/></g>
<g><path style="opacity:1" fill="#68a481" d="M 123.5,145.5 C 127.582,146.376 131.249,148.043 134.5,150.5C 133.527,150.987 132.527,151.487 131.5,152C 133.001,153.252 134.668,154.252 136.5,155C 135.207,155.49 133.873,155.657 132.5,155.5C 132.719,156.675 132.386,157.675 131.5,158.5C 129.384,157.244 128.051,157.91 127.5,160.5C 125.633,158.233 123.3,157.066 120.5,157C 121.551,158.385 122.884,159.385 124.5,160C 123.167,160.667 123.167,161.333 124.5,162C 123.058,162.377 122.058,163.21 121.5,164.5C 116.809,160.803 112.142,157.136 107.5,153.5C 109.912,153.306 110.912,151.973 110.5,149.5C 115.878,152.407 121.545,154.741 127.5,156.5C 128.696,156.154 128.696,155.654 127.5,155C 125.359,154.427 123.359,153.594 121.5,152.5C 121.866,151.305 122.699,150.639 124,150.5C 125.798,151.504 127.632,152.004 129.5,152C 126.833,150 124.167,148 121.5,146C 122.094,145.536 122.761,145.369 123.5,145.5 Z"/></g>
<g><path style="opacity:1" fill="#a9caa9" d="M 127.5,160.5 C 131.073,162.784 134.74,164.784 138.5,166.5C 138.5,166.833 138.5,167.167 138.5,167.5C 134.243,166.038 130.243,164.038 126.5,161.5C 125.237,163.029 124.237,164.695 123.5,166.5C 122.5,166.167 121.833,165.5 121.5,164.5C 122.058,163.21 123.058,162.377 124.5,162C 123.167,161.333 123.167,160.667 124.5,160C 122.884,159.385 121.551,158.385 120.5,157C 123.3,157.066 125.633,158.233 127.5,160.5 Z"/></g>
<g><path style="opacity:1" fill="#7bac59" d="M 147.5,154.5 C 152.047,155.848 156.381,157.682 160.5,160C 157.118,160.176 153.785,160.676 150.5,161.5C 154.101,162.985 157.767,164.318 161.5,165.5C 157.134,166.289 152.634,166.289 148,165.5C 146.233,167.164 146.733,168.331 149.5,169C 148.667,169.167 147.833,169.333 147,169.5C 144.735,168.741 142.568,167.741 140.5,166.5C 139.477,163.993 140.144,161.827 142.5,160C 138.566,156.703 138.732,156.203 143,158.5C 143.748,156.249 145.248,154.916 147.5,154.5 Z"/></g>
<g><path style="opacity:1" fill="#74a868" d="M 138.5,167.5 C 139.007,168.859 140.007,169.859 141.5,170.5C 138.216,171.657 134.882,171.824 131.5,171C 129.13,168.758 126.464,167.258 123.5,166.5C 124.237,164.695 125.237,163.029 126.5,161.5C 130.243,164.038 134.243,166.038 138.5,167.5 Z"/></g>
<g><path style="opacity:1" fill="#d6629c" d="M 43.5,167.5 C 44.2389,167.369 44.9056,167.536 45.5,168C 44.2567,169.154 43.2567,170.488 42.5,172C 41.8333,172.667 41.1667,172.667 40.5,172C 41.8825,170.729 42.8825,169.229 43.5,167.5 Z"/></g>
</svg>
