<?xml version="1.0" encoding="UTF-8"?>
<!DOCTYPE svg PUBLIC "-//W3C//DTD SVG 1.1//EN" "http://www.w3.org/Graphics/SVG/1.1/DTD/svg11.dtd">
<svg xmlns="http://www.w3.org/2000/svg" version="1.1" width="400px" height="200px" style="shape-rendering:geometricPrecision; text-rendering:geometricPrecision; image-rendering:optimizeQuality; fill-rule:evenodd; clip-rule:evenodd" xmlns:xlink="http://www.w3.org/1999/xlink">
<g><path style="opacity:1" fill="#fefefd" d="M -0.5,-0.5 C 132.833,-0.5 266.167,-0.5 399.5,-0.5C 399.5,66.1667 399.5,132.833 399.5,199.5C 266.167,199.5 132.833,199.5 -0.5,199.5C -0.5,132.833 -0.5,66.1667 -0.5,-0.5 Z"/></g>
<g><path style="opacity:1" fill="#e7ba45" d="M 78.5,31.5 C 77.3101,33.5533 76.6434,35.8866 76.5,38.5C 76.9792,41.3724 76.9792,44.0391 76.5,46.5C 70.3044,47.1879 64.6378,45.8546 59.5,42.5C 61.8275,41.276 64.1608,41.276 66.5,42.5C 67.5,42.1667 68.1667,41.5 68.5,40.5C 62.2008,40.479 56.5341,38.6457 51.5,35C 48.3004,34.8985 45.3004,34.2319 42.5,33C 51.5734,33.0748 60.5734,33.7414 69.5,35C 62.9638,32.5994 56.2971,30.5994 49.5,29C 49.0426,28.586 48.7093,28.086 48.5,27.5C 58.9207,26.3227 68.9207,27.6561 78.5,31.5 Z"/></g>
<g><path style="opacity:1" fill="#f7dbb7" d="M 260.5,32.5 C 256.975,38.2166 253.975,44.2166 251.5,50.5C 250.903,50.2648 250.57,49.7648 250.5,49C 251.32,47.1997 251.986,45.3664 252.5,43.5C 254.128,38.9099 256.295,34.5765 259,30.5C 259.278,31.4158 259.778,32.0825 260.5,32.5 Z"/></g>
<g><path style="opacity:1" fill="#e7ba45" d="M 359.5,36.5 C 358.31,38.5533 357.643,40.8866 357.5,43.5C 357.979,46.3724 357.979,49.0391 357.5,51.5C 351.304,52.1879 345.638,50.8546 340.5,47.5C 342.828,46.276 345.161,46.276 347.5,47.5C 348.5,47.1667 349.167,46.5 349.5,45.5C 343.201,45.479 337.534,43.6457 332.5,40C 329.3,39.8985 326.3,39.2319 323.5,38C 332.573,38.0748 341.573,38.7414 350.5,40C 343.964,37.5994 337.297,35.5994 330.5,34C 330.043,33.586 329.709,33.086 329.5,32.5C 339.921,31.3227 349.921,32.6561 359.5,36.5 Z"/></g>
<g><path style="opacity:1" fill="#e8bb54" d="M 40.5,34.5 C 43.738,35.8517 47.0714,37.0184 50.5,38C 47.7929,38.3283 45.1262,37.995 42.5,37C 41.244,36.5831 40.5774,35.7498 40.5,34.5 Z"/></g>
<g><path style="opacity:1" fill="#e8bb54" d="M 321.5,39.5 C 324.738,40.8517 328.071,42.0184 331.5,43C 328.793,43.3283 326.126,42.995 323.5,42C 322.244,41.5831 321.577,40.7498 321.5,39.5 Z"/></g>
<g><path style="opacity:1" fill="#f3e699" d="M 92.5,43.5 C 98.7887,47.47 102.789,53.1367 104.5,60.5C 103.833,62.8333 103.167,65.1667 102.5,67.5C 103.185,54.3182 97.185,45.4849 84.5,41C 87.3869,40.9335 90.0535,41.7668 92.5,43.5 Z"/></g>
<g><path style="opacity:1" fill="#e19e2f" d="M 263.5,51.5 C 262.833,51.5 262.167,51.5 261.5,51.5C 258.597,56.3019 255.93,61.3019 253.5,66.5C 251.808,68.2048 250.475,70.2048 249.5,72.5C 246.43,72.6323 243.43,72.299 240.5,71.5C 243.912,64.3423 247.578,57.3423 251.5,50.5C 253.975,44.2166 256.975,38.2166 260.5,32.5C 262.43,28.737 264.93,25.4037 268,22.5C 268.87,23.1079 269.37,23.9412 269.5,25C 267.169,29.3269 265.669,33.8269 265,38.5C 266.579,35.0061 268.413,31.6728 270.5,28.5C 270.833,29.1667 271.167,29.8333 271.5,30.5C 269.098,37.6309 266.431,44.6309 263.5,51.5 Z"/></g>
<g><path style="opacity:1" fill="#e9d843" d="M 93.5,36.5 C 114.348,49.0318 118.014,65.3651 104.5,85.5C 109.344,77.1232 111.177,68.1232 110,58.5C 109.64,56.3921 108.973,54.3921 108,52.5C 111.335,69.842 106.168,84.1754 92.5,95.5C 91.7109,95.2172 91.0442,94.7172 90.5,94C 93.5395,90.7397 96.2062,87.2397 98.5,83.5C 102.841,76.4696 104.841,68.803 104.5,60.5C 102.789,53.1367 98.7887,47.47 92.5,43.5C 94.14,42.2099 94.64,40.5433 94,38.5C 93.6667,39.5 93.3333,40.5 93,41.5C 92.2204,39.6131 92.3871,37.9464 93.5,36.5 Z"/></g>
<g><path style="opacity:1" fill="#f3e699" d="M 373.5,48.5 C 379.789,52.47 383.789,58.1367 385.5,65.5C 384.833,67.8333 384.167,70.1667 383.5,72.5C 384.185,59.3182 378.185,50.4849 365.5,46C 368.387,45.9335 371.054,46.7668 373.5,48.5 Z"/></g>
<g><path style="opacity:1" fill="#b2adc5" d="M 52.5,44.5 C 52.5754,48.8967 52.0754,53.23 51,57.5C 50.5017,54.1832 50.335,50.8499 50.5,47.5C 51.1667,46.5 51.8333,45.5 52.5,44.5 Z"/></g>
<g><path style="opacity:1" fill="#e9d843" d="M 374.5,41.5 C 395.348,54.0318 399.014,70.3651 385.5,90.5C 390.344,82.1232 392.177,73.1232 391,63.5C 390.64,61.3921 389.973,59.3921 389,57.5C 392.335,74.842 387.168,89.1754 373.5,100.5C 372.711,100.217 372.044,99.7172 371.5,99C 374.54,95.7397 377.206,92.2397 379.5,88.5C 383.841,81.4696 385.841,73.803 385.5,65.5C 383.789,58.1367 379.789,52.47 373.5,48.5C 375.14,47.2099 375.64,45.5433 375,43.5C 374.667,44.5 374.333,45.5 374,46.5C 373.22,44.6131 373.387,42.9464 374.5,41.5 Z"/></g>
<g><path style="opacity:1" fill="#edc76f" d="M 172.5,62.5 C 172.167,62.5 171.833,62.5 171.5,62.5C 171.105,58.815 170.938,55.1483 171,51.5C 172.337,55.0257 172.837,58.6924 172.5,62.5 Z"/></g>
<g><path style="opacity:1" fill="#e9c74a" d="M 78.5,31.5 C 83.915,32.1938 88.915,33.8605 93.5,36.5C 92.3871,37.9464 92.2204,39.6131 93,41.5C 93.3333,40.5 93.6667,39.5 94,38.5C 94.64,40.5433 94.14,42.2099 92.5,43.5C 90.0535,41.7668 87.3869,40.9335 84.5,41C 97.185,45.4849 103.185,54.3182 102.5,67.5C 101.839,72.8166 100.172,77.8166 97.5,82.5C 97.6236,83.1067 97.9569,83.44 98.5,83.5C 96.2062,87.2397 93.5395,90.7397 90.5,94C 91.0442,94.7172 91.7109,95.2172 92.5,95.5C 88.9532,101.117 84.2865,105.617 78.5,109C 72.6313,112.434 66.6313,115.601 60.5,118.5C 59.4324,117.566 58.099,117.232 56.5,117.5C 62.4376,114.527 68.1042,111.027 73.5,107C 73.1667,106.833 72.8333,106.667 72.5,106.5C 69.3168,108.555 65.9835,110.222 62.5,111.5C 62.2965,109.61 62.9632,108.11 64.5,107C 62.8374,106.735 61.3374,107.235 60,108.5C 60.7918,106.522 62.2918,104.855 64.5,103.5C 63.8671,101.481 62.8671,101.147 61.5,102.5C 61.44,101.957 61.1067,101.624 60.5,101.5C 57.4234,103.705 54.0901,105.372 50.5,106.5C 50.5,106.167 50.5,105.833 50.5,105.5C 51.1667,105.5 51.5,105.167 51.5,104.5C 63.2761,98.2328 73.4427,89.8995 82,79.5C 84.7949,75.7447 86.6282,71.578 87.5,67C 87.0507,64.6741 86.2174,62.5074 85,60.5C 78.8178,57.8109 73.3178,54.1442 68.5,49.5C 71.6199,48.4512 74.4533,49.1179 77,51.5C 77.3076,50.6919 77.8076,50.0253 78.5,49.5C 80.5828,51.2485 82.9162,52.0818 85.5,52C 82.7368,49.6258 79.7368,47.7925 76.5,46.5C 76.9792,44.0391 76.9792,41.3724 76.5,38.5C 76.6434,35.8866 77.3101,33.5533 78.5,31.5 Z"/></g>
<g><path style="opacity:1" fill="#b2adc5" d="M 333.5,49.5 C 333.575,53.8967 333.075,58.23 332,62.5C 331.502,59.1832 331.335,55.8499 331.5,52.5C 332.167,51.5 332.833,50.5 333.5,49.5 Z"/></g>
<g><path style="opacity:1" fill="#f9eeda" d="M 261.5,51.5 C 259.874,57.4193 257.207,62.7526 253.5,67.5C 253.5,67.1667 253.5,66.8333 253.5,66.5C 255.93,61.3019 258.597,56.3019 261.5,51.5 Z"/></g>
<g><path style="opacity:1" fill="#96b05c" d="M 252.5,43.5 C 251.986,45.3664 251.32,47.1997 250.5,49C 250.57,49.7648 250.903,50.2648 251.5,50.5C 247.578,57.3423 243.912,64.3423 240.5,71.5C 238.675,73.8031 236.842,76.1364 235,78.5C 236.118,75.5783 237.285,72.5783 238.5,69.5C 238.678,68.3052 239.011,67.1385 239.5,66C 237.195,62.0959 236.361,57.9293 237,53.5C 238.269,54.9047 238.769,56.5714 238.5,58.5C 239.675,58.719 240.675,58.3857 241.5,57.5C 240.59,51.3802 240.59,45.3802 241.5,39.5C 243.112,44.7258 244.279,50.0592 245,55.5C 246.096,51.9765 246.929,48.3098 247.5,44.5C 248.167,45.1667 248.833,45.8333 249.5,46.5C 250.288,45.2299 251.288,44.2299 252.5,43.5 Z"/></g>
<g><path style="opacity:1" fill="#e9c74a" d="M 359.5,36.5 C 364.915,37.1938 369.915,38.8605 374.5,41.5C 373.387,42.9464 373.22,44.6131 374,46.5C 374.333,45.5 374.667,44.5 375,43.5C 375.64,45.5433 375.14,47.2099 373.5,48.5C 371.054,46.7668 368.387,45.9335 365.5,46C 378.185,50.4849 384.185,59.3182 383.5,72.5C 382.839,77.8166 381.172,82.8166 378.5,87.5C 378.624,88.1067 378.957,88.44 379.5,88.5C 377.206,92.2397 374.54,95.7397 371.5,99C 372.044,99.7172 372.711,100.217 373.5,100.5C 369.953,106.117 365.286,110.617 359.5,114C 353.631,117.434 347.631,120.601 341.5,123.5C 340.432,122.566 339.099,122.232 337.5,122.5C 343.438,119.527 349.104,116.027 354.5,112C 354.167,111.833 353.833,111.667 353.5,111.5C 350.317,113.555 346.984,115.222 343.5,116.5C 343.297,114.61 343.963,113.11 345.5,112C 343.837,111.735 342.337,112.235 341,113.5C 341.792,111.522 343.292,109.855 345.5,108.5C 344.867,106.481 343.867,106.147 342.5,107.5C 342.44,106.957 342.107,106.624 341.5,106.5C 338.423,108.705 335.09,110.372 331.5,111.5C 331.5,111.167 331.5,110.833 331.5,110.5C 332.167,110.5 332.5,110.167 332.5,109.5C 344.276,103.233 354.443,94.8995 363,84.5C 365.795,80.7447 367.628,76.578 368.5,72C 368.051,69.6741 367.217,67.5074 366,65.5C 359.818,62.8109 354.318,59.1442 349.5,54.5C 352.62,53.4512 355.453,54.1179 358,56.5C 358.308,55.6919 358.808,55.0253 359.5,54.5C 361.583,56.2485 363.916,57.0818 366.5,57C 363.737,54.6258 360.737,52.7925 357.5,51.5C 357.979,49.0391 357.979,46.3724 357.5,43.5C 357.643,40.8866 358.31,38.5533 359.5,36.5 Z"/></g>
<g><path style="opacity:1" fill="#4d2d6c" d="M 57.5,53.5 C 57.1118,64.3808 55.4452,75.0475 52.5,85.5C 51.8602,82.276 49.8602,80.276 46.5,79.5C 44.6822,83.1356 42.8489,86.8022 41,90.5C 44.1776,81.2955 46.6776,71.7955 48.5,62C 48.3333,61.5 48.1667,61 48,60.5C 45.7837,65.2411 44.4503,70.2411 44,75.5C 43.4867,74.4734 42.9867,73.4734 42.5,72.5C 45.1222,64.3442 46.9555,56.0109 48,47.5C 48.9772,46.2264 49.8106,46.2264 50.5,47.5C 50.335,50.8499 50.5017,54.1832 51,57.5C 52.0754,53.23 52.5754,48.8967 52.5,44.5C 52.56,43.9569 52.8933,43.6236 53.5,43.5C 54.4287,44.6888 54.762,46.0222 54.5,47.5C 55.5,47.5 56.5,47.5 57.5,47.5C 57.5,49.5 57.5,51.5 57.5,53.5 Z"/></g>
<g><path style="opacity:1" fill="#95829f" d="M 169.5,58.5 C 170.167,59.8333 170.833,61.1667 171.5,62.5C 171.833,62.5 172.167,62.5 172.5,62.5C 173.833,68.1667 173.833,73.8333 172.5,79.5C 172.293,72.3522 171.293,65.3522 169.5,58.5 Z"/></g>
<g><path style="opacity:1" fill="#5b3d6d" d="M 167.5,52.5 C 167.666,62.5056 167.5,72.5056 167,82.5C 165.827,74.7394 163.994,67.4061 161.5,60.5C 162.369,52.5231 163.536,52.5231 165,60.5C 164.947,57.3248 165.78,54.6581 167.5,52.5 Z"/></g>
<g><path style="opacity:1" fill="#7fae65" d="M 237.5,69.5 C 236.66,71.8525 235.326,73.8525 233.5,75.5C 233.174,71.1161 233.508,66.7828 234.5,62.5C 236.018,64.6208 237.018,66.9541 237.5,69.5 Z"/></g>
<g><path style="opacity:1" fill="#4d2d6c" d="M 338.5,58.5 C 338.112,69.3808 336.445,80.0475 333.5,90.5C 332.86,87.276 330.86,85.276 327.5,84.5C 325.682,88.1356 323.849,91.8022 322,95.5C 325.178,86.2955 327.678,76.7955 329.5,67C 329.333,66.5 329.167,66 329,65.5C 326.784,70.2411 325.45,75.2411 325,80.5C 324.487,79.4734 323.987,78.4734 323.5,77.5C 326.122,69.3442 327.956,61.0109 329,52.5C 329.977,51.2264 330.811,51.2264 331.5,52.5C 331.335,55.8499 331.502,59.1832 332,62.5C 333.075,58.23 333.575,53.8967 333.5,49.5C 333.56,48.9569 333.893,48.6236 334.5,48.5C 335.429,49.6888 335.762,51.0222 335.5,52.5C 336.5,52.5 337.5,52.5 338.5,52.5C 338.5,54.5 338.5,56.5 338.5,58.5 Z"/></g>
<g><path style="opacity:1" fill="#f5e8a9" d="M 89.5,56.5 C 91.6657,55.7411 93.1657,56.7411 94,59.5C 95.0662,64.8041 94.3995,69.8041 92,74.5C 92.4916,69.5506 92.4916,64.5506 92,59.5C 91.6232,58.0577 90.7899,57.0577 89.5,56.5 Z"/></g>
<g><path style="opacity:1" fill="#fcfaeb" d="M 104.5,60.5 C 104.841,68.803 102.841,76.4696 98.5,83.5C 97.9569,83.44 97.6236,83.1067 97.5,82.5C 100.172,77.8166 101.839,72.8166 102.5,67.5C 103.167,65.1667 103.833,62.8333 104.5,60.5 Z"/></g>
<g><path style="opacity:1" fill="#f5e8a9" d="M 370.5,61.5 C 372.666,60.7411 374.166,61.7411 375,64.5C 376.066,69.8041 375.4,74.8041 373,79.5C 373.492,74.5506 373.492,69.5506 373,64.5C 372.623,63.0577 371.79,62.0577 370.5,61.5 Z"/></g>
<g><path style="opacity:1" fill="#fcfaeb" d="M 385.5,65.5 C 385.841,73.803 383.841,81.4696 379.5,88.5C 378.957,88.44 378.624,88.1067 378.5,87.5C 381.172,82.8166 382.839,77.8166 383.5,72.5C 384.167,70.1667 384.833,67.8333 385.5,65.5 Z"/></g>
<g><path style="opacity:1" fill="#c4b8cd" d="M 55.5,83.5 C 54.4586,83.9596 53.6253,85.2929 53,87.5C 52.5357,86.9056 52.369,86.2389 52.5,85.5C 55.4452,75.0475 57.1118,64.3808 57.5,53.5C 58.1499,53.1961 58.8165,52.8627 59.5,52.5C 60.8615,63.2784 59.5281,73.6117 55.5,83.5 Z"/></g>
<g><path style="opacity:1" fill="#7da968" d="M 253.5,66.5 C 253.5,66.8333 253.5,67.1667 253.5,67.5C 249.866,75.4322 245.7,83.0989 241,90.5C 240.282,91.4506 239.449,91.6172 238.5,91C 242.052,84.7231 245.719,78.5564 249.5,72.5C 250.475,70.2048 251.808,68.2048 253.5,66.5 Z"/></g>
<g><path style="opacity:1" fill="#6f2a6e" d="M 52.5,85.5 C 52.369,86.2389 52.5357,86.9056 53,87.5C 53.6253,85.2929 54.4586,83.9596 55.5,83.5C 53.9104,90.4483 52.577,97.4483 51.5,104.5C 51.5,105.167 51.1667,105.5 50.5,105.5C 47.9933,106.892 45.3267,107.892 42.5,108.5C 44.987,100.544 47.1536,92.5442 49,84.5C 45.59,93.5681 42.09,102.568 38.5,111.5C 34.7099,112.895 31.0432,114.562 27.5,116.5C 27.8333,115.167 28.1667,113.833 28.5,112.5C 32.561,98.9849 37.2277,85.6516 42.5,72.5C 42.9867,73.4734 43.4867,74.4734 44,75.5C 44.4503,70.2411 45.7837,65.2411 48,60.5C 48.1667,61 48.3333,61.5 48.5,62C 46.6776,71.7955 44.1776,81.2955 41,90.5C 42.8489,86.8022 44.6822,83.1356 46.5,79.5C 49.8602,80.276 51.8602,82.276 52.5,85.5 Z"/></g>
<g><path style="opacity:1" fill="#fbf5de" d="M 96.5,72.5 C 97.0431,72.56 97.3764,72.8933 97.5,73.5C 91.5494,85.2817 82.8827,94.1151 71.5,100C 76.3333,95.8333 81.1667,91.6667 86,87.5C 89.6903,82.6414 93.1903,77.6414 96.5,72.5 Z"/></g>
<g><path style="opacity:1" fill="#c4b8cd" d="M 336.5,88.5 C 335.459,88.9596 334.625,90.2929 334,92.5C 333.536,91.9056 333.369,91.2389 333.5,90.5C 336.445,80.0475 338.112,69.3808 338.5,58.5C 339.15,58.1961 339.817,57.8627 340.5,57.5C 341.861,68.2784 340.528,78.6117 336.5,88.5 Z"/></g>
<g><path style="opacity:1" fill="#f7eac6" d="M 230.5,92.5 C 230.557,91.391 230.89,90.391 231.5,89.5C 233.314,87.2359 235.147,84.9025 237,82.5C 235.933,86.4285 233.766,89.7619 230.5,92.5 Z"/></g>
<g><path style="opacity:1" fill="#6f2a6e" d="M 333.5,90.5 C 333.369,91.2389 333.536,91.9056 334,92.5C 334.625,90.2929 335.459,88.9596 336.5,88.5C 334.91,95.4483 333.577,102.448 332.5,109.5C 332.5,110.167 332.167,110.5 331.5,110.5C 328.993,111.892 326.327,112.892 323.5,113.5C 325.987,105.544 328.154,97.5442 330,89.5C 326.59,98.5681 323.09,107.568 319.5,116.5C 315.71,117.895 312.043,119.562 308.5,121.5C 308.833,120.167 309.167,118.833 309.5,117.5C 313.561,103.985 318.228,90.6516 323.5,77.5C 323.987,78.4734 324.487,79.4734 325,80.5C 325.45,75.2411 326.784,70.2411 329,65.5C 329.167,66 329.333,66.5 329.5,67C 327.678,76.7955 325.178,86.2955 322,95.5C 323.849,91.8022 325.682,88.1356 327.5,84.5C 330.86,85.276 332.86,87.276 333.5,90.5 Z"/></g>
<g><path style="opacity:1" fill="#fbf5de" d="M 377.5,77.5 C 378.043,77.56 378.376,77.8933 378.5,78.5C 372.549,90.2817 363.883,99.1151 352.5,105C 357.333,100.833 362.167,96.6667 367,92.5C 370.69,87.6414 374.19,82.6414 377.5,77.5 Z"/></g>
<g><path style="opacity:1" fill="#e8bf49" d="M 167.5,52.5 C 169.28,53.9899 169.946,55.9899 169.5,58.5C 171.293,65.3522 172.293,72.3522 172.5,79.5C 172.369,80.3764 172.702,81.0431 173.5,81.5C 174.167,78.5 174.833,75.5 175.5,72.5C 176.192,73.0253 176.692,73.6919 177,74.5C 178.023,80.793 178.689,87.1263 179,93.5C 179.847,95.8543 180.68,98.1877 181.5,100.5C 178.518,100.037 175.518,99.7038 172.5,99.5C 172.667,103.673 174,107.34 176.5,110.5C 176.833,111.833 177.167,113.167 177.5,114.5C 174.18,110.856 172.18,106.522 171.5,101.5C 168.921,101.917 166.754,101.25 165,99.5C 164.517,100.448 164.351,101.448 164.5,102.5C 163.833,102.5 163.5,102.167 163.5,101.5C 162.663,92.142 161.663,82.8087 160.5,73.5C 160.294,69.1018 160.627,64.7685 161.5,60.5C 163.994,67.4061 165.827,74.7394 167,82.5C 167.5,72.5056 167.666,62.5056 167.5,52.5 Z"/></g>
<g><path style="opacity:1" fill="#e5b843" d="M 261.5,51.5 C 262.167,51.5 262.833,51.5 263.5,51.5C 261.03,58.2414 258.364,64.9081 255.5,71.5C 251.116,79.9279 246.45,88.2613 241.5,96.5C 241.167,96.5 240.833,96.5 240.5,96.5C 236.486,96.6655 232.486,96.4988 228.5,96C 229.823,95.1841 230.489,94.0174 230.5,92.5C 233.766,89.7619 235.933,86.4285 237,82.5C 235.147,84.9025 233.314,87.2359 231.5,89.5C 228.794,89.4249 226.127,89.0916 223.5,88.5C 227.569,84.6775 230.902,80.3441 233.5,75.5C 235.326,73.8525 236.66,71.8525 237.5,69.5C 237.833,69.5 238.167,69.5 238.5,69.5C 237.285,72.5783 236.118,75.5783 235,78.5C 236.842,76.1364 238.675,73.8031 240.5,71.5C 243.43,72.299 246.43,72.6323 249.5,72.5C 245.719,78.5564 242.052,84.7231 238.5,91C 239.449,91.6172 240.282,91.4506 241,90.5C 245.7,83.0989 249.866,75.4322 253.5,67.5C 257.207,62.7526 259.874,57.4193 261.5,51.5 Z"/></g>
<g><path style="opacity:1" fill="#f1e382" d="M 104.5,85.5 C 103.657,88.5162 102.157,91.1829 100,93.5C 98.8867,95.3293 97.3867,96.1626 95.5,96C 98.3995,92.3354 101.399,88.8354 104.5,85.5 Z"/></g>
<g><path style="opacity:1" fill="#7b3574" d="M 160.5,73.5 C 161.663,82.8087 162.663,92.142 163.5,101.5C 161.872,105.999 160.539,110.666 159.5,115.5C 158.057,114.665 157.057,113.332 156.5,111.5C 155.893,111.624 155.56,111.957 155.5,112.5C 154.5,112.5 153.5,112.5 152.5,112.5C 154.641,99.3005 157.308,86.3005 160.5,73.5 Z"/></g>
<g><path style="opacity:1" fill="#79ad86" d="M 255.5,71.5 C 257.825,78.8107 260.159,86.1441 262.5,93.5C 262.263,96.0635 261.763,96.0635 261,93.5C 260.202,90.1069 259.202,86.7735 258,83.5C 257.833,84.1667 257.667,84.8333 257.5,85.5C 259.377,91.7953 261.044,98.1286 262.5,104.5C 261.504,104.586 260.671,104.252 260,103.5C 258.333,99.5 256.667,95.5 255,91.5C 255.253,94.133 255.253,96.7996 255,99.5C 254.617,98.944 254.117,98.6107 253.5,98.5C 253.013,97.5266 252.513,96.5266 252,95.5C 251.833,96.1667 251.667,96.8333 251.5,97.5C 252.508,101.518 253.508,105.518 254.5,109.5C 253.844,108.722 253.011,108.056 252,107.5C 250.56,108.148 249.06,108.481 247.5,108.5C 245.5,104.5 243.5,100.5 241.5,96.5C 246.45,88.2613 251.116,79.9279 255.5,71.5 Z"/></g>
<g><path style="opacity:1" fill="#f1e382" d="M 385.5,90.5 C 384.657,93.5162 383.157,96.1829 381,98.5C 379.887,100.329 378.387,101.163 376.5,101C 379.399,97.3354 382.399,93.8354 385.5,90.5 Z"/></g>
<g><path style="opacity:1" fill="#eac949" d="M 223.5,88.5 C 226.127,89.0916 228.794,89.4249 231.5,89.5C 230.89,90.391 230.557,91.391 230.5,92.5C 230.489,94.0174 229.823,95.1841 228.5,96C 232.486,96.4988 236.486,96.6655 240.5,96.5C 238.792,100.572 236.126,103.905 232.5,106.5C 228.167,106.5 223.833,106.5 219.5,106.5C 221.795,103.703 224.295,101.036 227,98.5C 227.667,97.8333 227.667,97.1667 227,96.5C 220.66,103.248 213.494,108.915 205.5,113.5C 205.158,112.662 204.492,112.328 203.5,112.5C 204.463,111.637 204.463,110.97 203.5,110.5C 196.645,112.907 190.812,111.573 186,106.5C 185.7,108.066 186.2,109.399 187.5,110.5C 183.584,110.296 179.918,110.296 176.5,110.5C 174,107.34 172.667,103.673 172.5,99.5C 175.518,99.7038 178.518,100.037 181.5,100.5C 181.987,101.473 182.487,102.473 183,103.5C 183.654,104.696 184.154,104.696 184.5,103.5C 183.314,100.397 181.98,97.3966 180.5,94.5C 180.959,90.8243 181.292,87.1576 181.5,83.5C 186.598,88.7929 189.764,95.1262 191,102.5C 192.863,104.205 195.029,105.205 197.5,105.5C 201.809,104.847 205.809,103.347 209.5,101C 214.335,96.9965 219.002,92.8298 223.5,88.5 Z"/></g>
<g><path style="opacity:1" fill="#f9eed7" d="M 61.5,102.5 C 57.9663,104.766 54.2996,106.766 50.5,108.5C 50.5,108.167 50.5,107.833 50.5,107.5C 50.5,107.167 50.5,106.833 50.5,106.5C 54.0901,105.372 57.4234,103.705 60.5,101.5C 61.1067,101.624 61.44,101.957 61.5,102.5 Z"/></g>
<g><path style="opacity:1" fill="#fcf6dc" d="M 219.5,106.5 C 213.494,112.159 206.494,116.159 198.5,118.5C 197.5,118.333 196.5,118.167 195.5,118C 199.357,117.552 202.691,116.052 205.5,113.5C 213.494,108.915 220.66,103.248 227,96.5C 227.667,97.1667 227.667,97.8333 227,98.5C 224.295,101.036 221.795,103.703 219.5,106.5 Z"/></g>
<g><path style="opacity:1" fill="#be8eb3" d="M 28.5,112.5 C 28.1667,113.833 27.8333,115.167 27.5,116.5C 25.9382,116.733 24.6049,117.4 23.5,118.5C 24.6419,112.907 26.4752,107.574 29,102.5C 29.0783,105.371 28.5783,108.205 27.5,111C 27.5699,111.765 27.9033,112.265 28.5,112.5 Z"/></g>
<g><path style="opacity:1" fill="#c395b8" d="M 151.5,116.5 C 150.826,119.526 149.993,122.526 149,125.5C 149.114,122.314 148.947,119.314 148.5,116.5C 149.073,112.397 150.073,108.397 151.5,104.5C 151.099,108.502 151.099,112.502 151.5,116.5 Z"/></g>
<g><path style="opacity:1" fill="#c099ba" d="M 35.5,102.5 C 36.0967,102.735 36.4301,103.235 36.5,104C 35.8037,105.893 34.9704,107.726 34,109.5C 33.8648,107.078 34.3648,104.745 35.5,102.5 Z"/></g>
<g><path style="opacity:1" fill="#e0cbd4" d="M 42.5,108.5 C 41.4489,109.222 40.7822,110.222 40.5,111.5C 40.1667,112.167 39.8333,112.833 39.5,113.5C 39.5,113.833 39.5,114.167 39.5,114.5C 39.1667,114.5 38.8333,114.5 38.5,114.5C 38.5,113.833 38.5,113.167 38.5,112.5C 38.5,112.167 38.5,111.833 38.5,111.5C 42.09,102.568 45.59,93.5681 49,84.5C 47.1536,92.5442 44.987,100.544 42.5,108.5 Z"/></g>
<g><path style="opacity:1" fill="#a45b5d" d="M 50.5,105.5 C 50.5,105.833 50.5,106.167 50.5,106.5C 50.5,106.833 50.5,107.167 50.5,107.5C 47.1667,108.833 43.8333,110.167 40.5,111.5C 40.7822,110.222 41.4489,109.222 42.5,108.5C 45.3267,107.892 47.9933,106.892 50.5,105.5 Z"/></g>
<g><path style="opacity:1" fill="#d3b3cc" d="M 163.5,101.5 C 163.5,102.167 163.833,102.5 164.5,102.5C 164.5,102.833 164.5,103.167 164.5,103.5C 163.158,109.85 161.325,116.183 159,122.5C 158.666,120.153 158.833,117.819 159.5,115.5C 160.539,110.666 161.872,105.999 163.5,101.5 Z"/></g>
<g><path style="opacity:1" fill="#c8ded7" d="M 253.5,98.5 C 256.087,109.264 259.087,119.931 262.5,130.5C 262.263,133.063 261.763,133.063 261,130.5C 258.928,123.452 256.761,116.452 254.5,109.5C 253.508,105.518 252.508,101.518 251.5,97.5C 251.667,96.8333 251.833,96.1667 252,95.5C 252.513,96.5266 253.013,97.5266 253.5,98.5 Z"/></g>
<g><path style="opacity:1" fill="#813074" d="M 50.5,107.5 C 50.5,107.833 50.5,108.167 50.5,108.5C 46.9568,110.438 43.2901,112.105 39.5,113.5C 39.8333,112.833 40.1667,112.167 40.5,111.5C 43.8333,110.167 47.1667,108.833 50.5,107.5 Z"/></g>
<g><path style="opacity:1" fill="#65a492" d="M 262.5,104.5 C 265.388,110.949 267.722,117.616 269.5,124.5C 268.12,124.962 267.453,125.962 267.5,127.5C 269.088,131.408 269.922,135.408 270,139.5C 268.667,136.833 267.333,134.167 266,131.5C 265.652,134.342 264.152,136.009 261.5,136.5C 260.442,135.4 259.608,134.066 259,132.5C 258.517,133.448 258.351,134.448 258.5,135.5C 253.876,126.978 250.209,117.978 247.5,108.5C 249.06,108.481 250.56,108.148 252,107.5C 253.011,108.056 253.844,108.722 254.5,109.5C 256.761,116.452 258.928,123.452 261,130.5C 261.763,133.063 262.263,133.063 262.5,130.5C 259.087,119.931 256.087,109.264 253.5,98.5C 254.117,98.6107 254.617,98.944 255,99.5C 255.253,96.7996 255.253,94.133 255,91.5C 256.667,95.5 258.333,99.5 260,103.5C 260.671,104.252 261.504,104.586 262.5,104.5 Z"/></g>
<g><path style="opacity:1" fill="#f9eed7" d="M 342.5,107.5 C 338.966,109.766 335.3,111.766 331.5,113.5C 331.5,113.167 331.5,112.833 331.5,112.5C 331.5,112.167 331.5,111.833 331.5,111.5C 335.09,110.372 338.423,108.705 341.5,106.5C 342.107,106.624 342.44,106.957 342.5,107.5 Z"/></g>
<g><path style="opacity:1" fill="#be8eb3" d="M 309.5,117.5 C 309.167,118.833 308.833,120.167 308.5,121.5C 306.938,121.733 305.605,122.4 304.5,123.5C 305.642,117.907 307.475,112.574 310,107.5C 310.078,110.371 309.578,113.205 308.5,116C 308.57,116.765 308.903,117.265 309.5,117.5 Z"/></g>
<g><path style="opacity:1" fill="#c099ba" d="M 316.5,107.5 C 317.097,107.735 317.43,108.235 317.5,109C 316.804,110.893 315.97,112.726 315,114.5C 314.865,112.078 315.365,109.745 316.5,107.5 Z"/></g>
<g><path style="opacity:1" fill="#e0cbd4" d="M 323.5,113.5 C 322.449,114.222 321.782,115.222 321.5,116.5C 321.167,117.167 320.833,117.833 320.5,118.5C 320.5,118.833 320.5,119.167 320.5,119.5C 320.167,119.5 319.833,119.5 319.5,119.5C 319.5,118.833 319.5,118.167 319.5,117.5C 319.5,117.167 319.5,116.833 319.5,116.5C 323.09,107.568 326.59,98.5681 330,89.5C 328.154,97.5442 325.987,105.544 323.5,113.5 Z"/></g>
<g><path style="opacity:1" fill="#a45b5d" d="M 331.5,110.5 C 331.5,110.833 331.5,111.167 331.5,111.5C 331.5,111.833 331.5,112.167 331.5,112.5C 328.167,113.833 324.833,115.167 321.5,116.5C 321.782,115.222 322.449,114.222 323.5,113.5C 326.327,112.892 328.993,111.892 331.5,110.5 Z"/></g>
<g><path style="opacity:1" fill="#d1875d" d="M 38.5,111.5 C 38.5,111.833 38.5,112.167 38.5,112.5C 34.1362,114.344 30.1362,116.677 26.5,119.5C 25.0697,120.537 23.403,121.204 21.5,121.5C 21.5654,121.062 21.3988,120.728 21,120.5C 19.6626,121.765 18.1626,122.265 16.5,122C 18.6093,120.354 20.9427,119.188 23.5,118.5C 24.6049,117.4 25.9382,116.733 27.5,116.5C 31.0432,114.562 34.7099,112.895 38.5,111.5 Z"/></g>
<g><path style="opacity:1" fill="#faf1de" d="M 56.5,117.5 C 53.6484,119.091 50.6484,120.424 47.5,121.5C 47.5,121.167 47.5,120.833 47.5,120.5C 52.3343,117.248 57.3343,114.248 62.5,111.5C 65.9835,110.222 69.3168,108.555 72.5,106.5C 72.8333,106.667 73.1667,106.833 73.5,107C 68.1042,111.027 62.4376,114.527 56.5,117.5 Z"/></g>
<g><path style="opacity:1" fill="#813074" d="M 331.5,112.5 C 331.5,112.833 331.5,113.167 331.5,113.5C 327.957,115.438 324.29,117.105 320.5,118.5C 320.833,117.833 321.167,117.167 321.5,116.5C 324.833,115.167 328.167,113.833 331.5,112.5 Z"/></g>
<g><path style="opacity:1" fill="#a03e60" d="M 38.5,112.5 C 38.5,113.167 38.5,113.833 38.5,114.5C 34.5044,116.164 30.5044,117.831 26.5,119.5C 30.1362,116.677 34.1362,114.344 38.5,112.5 Z"/></g>
<g><path style="opacity:1" fill="#ead547" d="M 177.5,114.5 C 177.167,113.167 176.833,111.833 176.5,110.5C 179.918,110.296 183.584,110.296 187.5,110.5C 192.413,113.714 197.746,114.381 203.5,112.5C 204.492,112.328 205.158,112.662 205.5,113.5C 202.691,116.052 199.357,117.552 195.5,118C 196.5,118.167 197.5,118.333 198.5,118.5C 206.494,116.159 213.494,112.159 219.5,106.5C 223.833,106.5 228.167,106.5 232.5,106.5C 227.469,111.026 222.469,115.86 217.5,121C 206.4,129.39 194.4,131.39 181.5,127C 183.221,128.527 185.221,129.527 187.5,130C 192.5,130.667 197.5,130.667 202.5,130C 207.3,128.431 211.966,126.597 216.5,124.5C 197.327,137.777 181.327,134.777 168.5,115.5C 167.157,111.486 165.824,107.486 164.5,103.5C 164.5,103.167 164.5,102.833 164.5,102.5C 164.351,101.448 164.517,100.448 165,99.5C 166.754,101.25 168.921,101.917 171.5,101.5C 172.18,106.522 174.18,110.856 177.5,114.5 Z"/></g>
<g><path style="opacity:1" fill="#faf1cb" d="M 203.5,112.5 C 197.746,114.381 192.413,113.714 187.5,110.5C 186.2,109.399 185.7,108.066 186,106.5C 190.812,111.573 196.645,112.907 203.5,110.5C 204.463,110.97 204.463,111.637 203.5,112.5 Z"/></g>
<g><path style="opacity:1" fill="#d1875d" d="M 319.5,116.5 C 319.5,116.833 319.5,117.167 319.5,117.5C 315.136,119.344 311.136,121.677 307.5,124.5C 306.07,125.537 304.403,126.204 302.5,126.5C 302.565,126.062 302.399,125.728 302,125.5C 300.663,126.765 299.163,127.265 297.5,127C 299.609,125.354 301.943,124.188 304.5,123.5C 305.605,122.4 306.938,121.733 308.5,121.5C 312.043,119.562 315.71,117.895 319.5,116.5 Z"/></g>
<g><path style="opacity:1" fill="#faf1de" d="M 337.5,122.5 C 334.648,124.091 331.648,125.424 328.5,126.5C 328.5,126.167 328.5,125.833 328.5,125.5C 333.334,122.248 338.334,119.248 343.5,116.5C 346.984,115.222 350.317,113.555 353.5,111.5C 353.833,111.667 354.167,111.833 354.5,112C 349.104,116.027 343.438,119.527 337.5,122.5 Z"/></g>
<g><path style="opacity:1" fill="#fcf8df" d="M 177.5,114.5 C 184.936,122.691 193.936,124.858 204.5,121C 207.474,119.564 210.474,118.564 213.5,118C 203.232,125.451 192.565,126.118 181.5,120C 179.536,118.549 178.203,116.716 177.5,114.5 Z"/></g>
<g><path style="opacity:1" fill="#a03e60" d="M 319.5,117.5 C 319.5,118.167 319.5,118.833 319.5,119.5C 315.504,121.164 311.504,122.831 307.5,124.5C 311.136,121.677 315.136,119.344 319.5,117.5 Z"/></g>
<g><path style="opacity:1" fill="#eede67" d="M 216.5,124.5 C 218.094,123.017 219.76,121.517 221.5,120C 222.167,119.333 222.833,119.333 223.5,120C 221.789,122.519 219.455,124.019 216.5,124.5 Z"/></g>
<g><path style="opacity:1" fill="#982f75" d="M 152.5,112.5 C 153.5,112.5 154.5,112.5 155.5,112.5C 154.116,120.917 152.283,129.25 150,137.5C 147.399,134.696 145.899,135.029 145.5,138.5C 147.429,138.231 149.095,138.731 150.5,140C 149.01,141.772 147.343,141.939 145.5,140.5C 144.824,141.602 144.158,142.602 143.5,143.5C 145.24,134.491 146.907,125.491 148.5,116.5C 148.947,119.314 149.114,122.314 149,125.5C 149.993,122.526 150.826,119.526 151.5,116.5C 151.433,115.041 151.766,113.708 152.5,112.5 Z"/></g>
<g><path style="opacity:1" fill="#e2a636" d="M 62.5,111.5 C 57.3343,114.248 52.3343,117.248 47.5,120.5C 44.5983,120.823 42.765,122.156 42,124.5C 44.0581,123.771 45.8914,122.771 47.5,121.5C 50.6484,120.424 53.6484,119.091 56.5,117.5C 58.099,117.232 59.4324,117.566 60.5,118.5C 55.5122,121.042 50.5122,123.375 45.5,125.5C 43.4214,125.971 41.4214,126.637 39.5,127.5C 38.209,127.263 37.209,127.596 36.5,128.5C 35.1667,128.833 33.8333,129.167 32.5,129.5C 32.1568,127.517 32.8235,126.183 34.5,125.5C 39.166,126.071 39.8327,126.071 36.5,125.5C 36.318,122.906 35.318,120.739 33.5,119C 35.8157,117.702 37.8157,116.202 39.5,114.5C 39.5,114.167 39.5,113.833 39.5,113.5C 43.2901,112.105 46.9568,110.438 50.5,108.5C 54.2996,106.766 57.9663,104.766 61.5,102.5C 62.8671,101.147 63.8671,101.481 64.5,103.5C 62.2918,104.855 60.7918,106.522 60,108.5C 61.3374,107.235 62.8374,106.735 64.5,107C 62.9632,108.11 62.2965,109.61 62.5,111.5 Z"/></g>
<g><path style="opacity:1" fill="#8d2f6c" d="M 47.5,120.5 C 47.5,120.833 47.5,121.167 47.5,121.5C 45.8914,122.771 44.0581,123.771 42,124.5C 42.765,122.156 44.5983,120.823 47.5,120.5 Z"/></g>
<g><path style="opacity:1" fill="#9a3c71" d="M 34.5,125.5 C 35.1667,125.5 35.8333,125.5 36.5,125.5C 39.8327,126.071 39.166,126.071 34.5,125.5 Z"/></g>
<g><path style="opacity:1" fill="#de9428" d="M 38.5,114.5 C 38.8333,114.5 39.1667,114.5 39.5,114.5C 37.8157,116.202 35.8157,117.702 33.5,119C 35.318,120.739 36.318,122.906 36.5,125.5C 35.8333,125.5 35.1667,125.5 34.5,125.5C 32.8235,126.183 32.1568,127.517 32.5,129.5C 27.5738,131.364 22.5738,133.031 17.5,134.5C 16.1266,134.657 14.7932,134.49 13.5,134C 15.3451,132.577 17.3451,131.41 19.5,130.5C 19.1667,130.167 18.8333,129.833 18.5,129.5C 14.9417,131.482 11.275,132.149 7.5,131.5C 11.8438,127.666 16.5105,124.333 21.5,121.5C 23.403,121.204 25.0697,120.537 26.5,119.5C 30.5044,117.831 34.5044,116.164 38.5,114.5 Z"/></g>
<g><path style="opacity:1" fill="#e6c8d3" d="M 36.5,128.5 C 37.209,127.596 38.209,127.263 39.5,127.5C 39.1743,130.311 38.3409,132.978 37,135.5C 37.4115,133.005 37.2449,130.671 36.5,128.5 Z"/></g>
<g><path style="opacity:1" fill="#e2a636" d="M 343.5,116.5 C 338.334,119.248 333.334,122.248 328.5,125.5C 325.598,125.823 323.765,127.156 323,129.5C 325.058,128.771 326.891,127.771 328.5,126.5C 331.648,125.424 334.648,124.091 337.5,122.5C 339.099,122.232 340.432,122.566 341.5,123.5C 336.512,126.042 331.512,128.375 326.5,130.5C 324.421,130.971 322.421,131.637 320.5,132.5C 319.209,132.263 318.209,132.596 317.5,133.5C 316.167,133.833 314.833,134.167 313.5,134.5C 313.157,132.517 313.824,131.183 315.5,130.5C 320.166,131.071 320.833,131.071 317.5,130.5C 317.318,127.906 316.318,125.739 314.5,124C 316.816,122.702 318.816,121.202 320.5,119.5C 320.5,119.167 320.5,118.833 320.5,118.5C 324.29,117.105 327.957,115.438 331.5,113.5C 335.3,111.766 338.966,109.766 342.5,107.5C 343.867,106.147 344.867,106.481 345.5,108.5C 343.292,109.855 341.792,111.522 341,113.5C 342.337,112.235 343.837,111.735 345.5,112C 343.963,113.11 343.297,114.61 343.5,116.5 Z"/></g>
<g><path style="opacity:1" fill="#8d2f6c" d="M 328.5,125.5 C 328.5,125.833 328.5,126.167 328.5,126.5C 326.891,127.771 325.058,128.771 323,129.5C 323.765,127.156 325.598,125.823 328.5,125.5 Z"/></g>
<g><path style="opacity:1" fill="#9a3c71" d="M 315.5,130.5 C 316.167,130.5 316.833,130.5 317.5,130.5C 320.833,131.071 320.166,131.071 315.5,130.5 Z"/></g>
<g><path style="opacity:1" fill="#4c9cb2" d="M 73.5,131.5 C 71.9059,134.764 69.5725,137.431 66.5,139.5C 62.2642,136.937 59.5976,133.27 58.5,128.5C 58.7139,124.856 59.8806,124.523 62,127.5C 61.7374,126.049 61.9041,124.716 62.5,123.5C 66.019,126.421 69.6857,129.087 73.5,131.5 Z"/></g>
<g><path style="opacity:1" fill="#c584ae" d="M 160.5,138.5 C 160.167,138.5 159.833,138.5 159.5,138.5C 160.219,136.236 160.552,133.903 160.5,131.5C 161.224,127.496 162.057,123.496 163,119.5C 163.319,126.092 162.486,132.425 160.5,138.5 Z"/></g>
<g><path style="opacity:1" fill="#962a72" d="M 164.5,103.5 C 165.824,107.486 167.157,111.486 168.5,115.5C 168.867,124.651 168.033,133.651 166,142.5C 164.77,145.732 162.77,148.399 160,150.5C 159.963,146.559 160.13,142.559 160.5,138.5C 162.486,132.425 163.319,126.092 163,119.5C 162.057,123.496 161.224,127.496 160.5,131.5C 158.533,131.739 156.699,131.406 155,130.5C 154.667,131.167 154.333,131.833 154,132.5C 154.366,126.82 155.2,121.153 156.5,115.5C 156.48,114.274 156.147,113.274 155.5,112.5C 155.56,111.957 155.893,111.624 156.5,111.5C 157.057,113.332 158.057,114.665 159.5,115.5C 158.833,117.819 158.666,120.153 159,122.5C 161.325,116.183 163.158,109.85 164.5,103.5 Z"/></g>
<g><path style="opacity:1" fill="#de9428" d="M 319.5,119.5 C 319.833,119.5 320.167,119.5 320.5,119.5C 318.816,121.202 316.816,122.702 314.5,124C 316.318,125.739 317.318,127.906 317.5,130.5C 316.833,130.5 316.167,130.5 315.5,130.5C 313.824,131.183 313.157,132.517 313.5,134.5C 308.574,136.364 303.574,138.031 298.5,139.5C 297.127,139.657 295.793,139.49 294.5,139C 296.345,137.577 298.345,136.41 300.5,135.5C 300.167,135.167 299.833,134.833 299.5,134.5C 295.942,136.482 292.275,137.149 288.5,136.5C 292.844,132.666 297.51,129.333 302.5,126.5C 304.403,126.204 306.07,125.537 307.5,124.5C 311.504,122.831 315.504,121.164 319.5,119.5 Z"/></g>
<g><path style="opacity:1" fill="#e6c8d3" d="M 317.5,133.5 C 318.209,132.596 319.209,132.263 320.5,132.5C 320.174,135.311 319.341,137.978 318,140.5C 318.412,138.005 318.245,135.671 317.5,133.5 Z"/></g>
<g><path style="opacity:1" fill="#559e9f" d="M 73.5,131.5 C 78.6935,133.928 83.6935,136.595 88.5,139.5C 87.2101,140.058 86.3768,141.058 86,142.5C 85.51,141.207 85.3433,139.873 85.5,138.5C 81.4237,138.719 77.757,137.886 74.5,136C 77.5568,138.723 80.8901,141.056 84.5,143C 83.6195,143.708 82.9528,144.542 82.5,145.5C 80.8583,144.133 79.1916,143.799 77.5,144.5C 79.5654,145.857 81.5654,147.19 83.5,148.5C 83.9118,150.973 82.9118,152.306 80.5,152.5C 77.7173,150.933 75.0507,149.1 72.5,147C 73.8333,147 75.1667,147 76.5,147C 72.9196,144.723 69.5863,142.223 66.5,139.5C 69.5725,137.431 71.9059,134.764 73.5,131.5 Z"/></g>
<g><path style="opacity:1" fill="#a82471" d="M 155.5,112.5 C 156.147,113.274 156.48,114.274 156.5,115.5C 155.2,121.153 154.366,126.82 154,132.5C 154.333,131.833 154.667,131.167 155,130.5C 156.699,131.406 158.533,131.739 160.5,131.5C 160.552,133.903 160.219,136.236 159.5,138.5C 157.471,143.66 155.971,148.993 155,154.5C 154.667,154.833 154.333,155.167 154,155.5C 153.092,148.517 152.092,148.183 151,154.5C 147.878,157.11 145.378,160.11 143.5,163.5C 143.167,163.333 142.833,163.167 142.5,163C 144.767,158.326 146.267,153.493 147,148.5C 145.311,151.891 143.144,154.891 140.5,157.5C 139.804,152.558 140.804,147.892 143.5,143.5C 144.158,142.602 144.824,141.602 145.5,140.5C 147.343,141.939 149.01,141.772 150.5,140C 149.095,138.731 147.429,138.231 145.5,138.5C 145.899,135.029 147.399,134.696 150,137.5C 152.283,129.25 154.116,120.917 155.5,112.5 Z"/></g>
<g><path style="opacity:1" fill="#569fa3" d="M 269.5,124.5 C 271.985,132.104 274.319,139.771 276.5,147.5C 273.195,147.324 269.862,147.99 266.5,149.5C 264.263,145.466 262.596,141.132 261.5,136.5C 264.152,136.009 265.652,134.342 266,131.5C 267.333,134.167 268.667,136.833 270,139.5C 269.922,135.408 269.088,131.408 267.5,127.5C 267.453,125.962 268.12,124.962 269.5,124.5 Z"/></g>
<g><path style="opacity:1" fill="#a42771" d="M 45.5,125.5 C 47.1994,130.18 46.366,134.513 43,138.5C 42.8488,146.471 39.3488,152.471 32.5,156.5C 31.5105,154.412 31.8439,152.412 33.5,150.5C 33.1667,149.833 32.8333,149.167 32.5,148.5C 33.9294,146.669 34.4294,144.669 34,142.5C 30.562,148.144 27.8953,154.144 26,160.5C 25.1072,161.711 24.2739,161.711 23.5,160.5C 25.9794,158.031 25.8128,156.031 23,154.5C 22.3333,156.5 21.6667,158.5 21,160.5C 17.327,163.007 14.1603,166.007 11.5,169.5C 13.1027,164.251 15.4361,158.918 18.5,153.5C 18.3333,153.167 18.1667,152.833 18,152.5C 15.5374,155.965 12.7041,159.131 9.5,162C 8.51654,162.591 7.84987,162.257 7.5,161C 11.8258,152.52 15.1591,143.686 17.5,134.5C 22.5738,133.031 27.5738,131.364 32.5,129.5C 33.8333,129.167 35.1667,128.833 36.5,128.5C 37.2449,130.671 37.4115,133.005 37,135.5C 38.3409,132.978 39.1743,130.311 39.5,127.5C 41.4214,126.637 43.4214,125.971 45.5,125.5 Z"/></g>
<g><path style="opacity:1" fill="#a42771" d="M 326.5,130.5 C 328.199,135.18 327.366,139.513 324,143.5C 323.849,151.471 320.349,157.471 313.5,161.5C 312.511,159.412 312.844,157.412 314.5,155.5C 314.167,154.833 313.833,154.167 313.5,153.5C 314.929,151.669 315.429,149.669 315,147.5C 311.562,153.144 308.895,159.144 307,165.5C 306.107,166.711 305.274,166.711 304.5,165.5C 306.979,163.031 306.813,161.031 304,159.5C 303.333,161.5 302.667,163.5 302,165.5C 298.327,168.007 295.16,171.007 292.5,174.5C 294.103,169.251 296.436,163.918 299.5,158.5C 299.333,158.167 299.167,157.833 299,157.5C 296.537,160.965 293.704,164.131 290.5,167C 289.517,167.591 288.85,167.257 288.5,166C 292.826,157.52 296.159,148.686 298.5,139.5C 303.574,138.031 308.574,136.364 313.5,134.5C 314.833,134.167 316.167,133.833 317.5,133.5C 318.245,135.671 318.412,138.005 318,140.5C 319.341,137.978 320.174,135.311 320.5,132.5C 322.421,131.637 324.421,130.971 326.5,130.5 Z"/></g>
<g><path style="opacity:1" fill="#c2dad2" d="M 82.5,145.5 C 88.8379,148.669 95.1712,151.836 101.5,155C 99.5292,155.014 97.5292,154.681 95.5,154C 91.6048,151.938 87.6048,150.105 83.5,148.5C 81.5654,147.19 79.5654,145.857 77.5,144.5C 79.1916,143.799 80.8583,144.133 82.5,145.5 Z"/></g>
<g><path style="opacity:1" fill="#72a86c" d="M 120.5,153.5 C 118.248,153.916 116.748,155.249 116,157.5C 111.732,155.203 111.566,155.703 115.5,159C 113.144,160.827 112.477,162.993 113.5,165.5C 112.833,165.5 112.167,165.5 111.5,165.5C 107.74,163.784 104.073,161.784 100.5,159.5C 101.051,156.91 102.384,156.244 104.5,157.5C 105.386,156.675 105.719,155.675 105.5,154.5C 106.873,154.657 108.207,154.49 109.5,154C 107.668,153.252 106.001,152.252 104.5,151C 105.527,150.487 106.527,149.987 107.5,149.5C 111.1,148.821 110.767,147.987 106.5,147C 105.112,146.111 105.278,145.611 107,145.5C 111.465,148.312 115.965,150.979 120.5,153.5 Z"/></g>
<g><path style="opacity:1" fill="#67a385" d="M 88.5,139.5 C 94.8421,142.835 101.175,146.168 107.5,149.5C 106.527,149.987 105.527,150.487 104.5,151C 106.001,152.252 107.668,153.252 109.5,154C 108.207,154.49 106.873,154.657 105.5,154.5C 105.719,155.675 105.386,156.675 104.5,157.5C 102.384,156.244 101.051,156.91 100.5,159.5C 98.6334,157.233 96.3001,156.066 93.5,156C 94.5505,157.385 95.8839,158.385 97.5,159C 96.1667,159.667 96.1667,160.333 97.5,161C 96.0577,161.377 95.0577,162.21 94.5,163.5C 89.8091,159.803 85.1424,156.136 80.5,152.5C 82.9118,152.306 83.9118,150.973 83.5,148.5C 87.6048,150.105 91.6048,151.938 95.5,154C 97.5292,154.681 99.5292,155.014 101.5,155C 95.1712,151.836 88.8379,148.669 82.5,145.5C 82.9528,144.542 83.6195,143.708 84.5,143C 80.8901,141.056 77.5568,138.723 74.5,136C 77.757,137.886 81.4237,138.719 85.5,138.5C 85.3433,139.873 85.51,141.207 86,142.5C 86.3768,141.058 87.2101,140.058 88.5,139.5 Z"/></g>
<g><path style="opacity:1" fill="#bbd9e0" d="M 261.5,136.5 C 262.596,141.132 264.263,145.466 266.5,149.5C 268.38,155.591 271.047,161.257 274.5,166.5C 274.631,167.239 274.464,167.906 274,168.5C 266.679,158.525 261.513,147.525 258.5,135.5C 258.351,134.448 258.517,133.448 259,132.5C 259.608,134.066 260.442,135.4 261.5,136.5 Z"/></g>
<g><path style="opacity:1" fill="#4e9db5" d="M 276.5,147.5 C 278.475,154.253 281.142,160.753 284.5,167C 284.167,167.5 283.833,168 283.5,168.5C 282.667,167.5 281.833,166.5 281,165.5C 280.833,165.833 280.667,166.167 280.5,166.5C 281.929,168.331 282.429,170.331 282,172.5C 279.561,170.371 277.061,168.371 274.5,166.5C 271.047,161.257 268.38,155.591 266.5,149.5C 269.862,147.99 273.195,147.324 276.5,147.5 Z"/></g>
<g><path style="opacity:1" fill="#a9caa9" d="M 100.5,159.5 C 104.073,161.784 107.74,163.784 111.5,165.5C 111.5,165.833 111.5,166.167 111.5,166.5C 107.243,165.038 103.243,163.038 99.5,160.5C 98.2371,162.029 97.2371,163.695 96.5,165.5C 95.5,165.167 94.8333,164.5 94.5,163.5C 95.0577,162.21 96.0577,161.377 97.5,161C 96.1667,160.333 96.1667,159.667 97.5,159C 95.8839,158.385 94.5505,157.385 93.5,156C 96.3001,156.066 98.6334,157.233 100.5,159.5 Z"/></g>
<g><path style="opacity:1" fill="#7dad59" d="M 120.5,153.5 C 125.047,154.848 129.381,156.682 133.5,159C 130.118,159.176 126.785,159.676 123.5,160.5C 127.101,161.985 130.767,163.318 134.5,164.5C 130.134,165.289 125.634,165.289 121,164.5C 119.233,166.164 119.733,167.331 122.5,168C 121.667,168.167 120.833,168.333 120,168.5C 117.735,167.741 115.568,166.741 113.5,165.5C 112.477,162.993 113.144,160.827 115.5,159C 111.566,155.703 111.732,155.203 116,157.5C 116.748,155.249 118.248,153.916 120.5,153.5 Z"/></g>
<g><path style="opacity:1" fill="#dc75a9" d="M 147.5,160.5 C 148.465,161.721 148.298,163.054 147,164.5C 146.282,165.451 145.449,165.617 144.5,165C 145.883,163.729 146.883,162.229 147.5,160.5 Z"/></g>
<g><path style="opacity:1" fill="#74a869" d="M 111.5,166.5 C 112.007,167.859 113.007,168.859 114.5,169.5C 111.216,170.657 107.882,170.824 104.5,170C 102.13,167.758 99.4635,166.258 96.5,165.5C 97.2371,163.695 98.2371,162.029 99.5,160.5C 103.243,163.038 107.243,165.038 111.5,166.5 Z"/></g>
<g><path style="opacity:1" fill="#d6629c" d="M 16.5,166.5 C 17.2389,166.369 17.9056,166.536 18.5,167C 17.2567,168.154 16.2567,169.488 15.5,171C 14.8333,171.667 14.1667,171.667 13.5,171C 14.8825,169.729 15.8825,168.229 16.5,166.5 Z"/></g>
<g><path style="opacity:1" fill="#d6629c" d="M 297.5,171.5 C 298.239,171.369 298.906,171.536 299.5,172C 298.257,173.154 297.257,174.488 296.5,176C 295.833,176.667 295.167,176.667 294.5,176C 295.883,174.729 296.883,173.229 297.5,171.5 Z"/></g>
</svg>
